/* XPM */
static char *_665a131a3214dd0828576ba91b2fbedcVMATCBlrExmDM48[] = {
/* columns rows colors chars-per-pixel */
"64 128 2 1 ",
"  c black",
". c #99D9EA",
/* pixels */
"        ........        ........        ........        ........",
"        ........        ........        ........        ........",
"        ........        ........        ........        ........",
"        ........        ........        ........        ........",
"        ........        ........        ........        ........",
"        ........        ........        ........        ........",
"        ........        ........        ........        ........",
"        ........        ........        ........        ........",
"        ........        ........        ........        ........",
"        ........        ........        ........        ........",
"        ........        ........        ........        ........",
"        ........        ........        ........        ........",
"        ........        ........        ........        ........",
"        ........        ........        ........        ........",
"        ........        ........        ........        ........",
"        ........        ........        ........        ........",
"        ........        ........        ........        ........",
"        ........        ........        ........        ........",
"        ........        ........        ........        ........",
"        ........        ........        ........        ........",
"        ........        ........        ........        ........",
"        ........        ........        ........        ........",
"        ........        ........        ........        ........",
"        ........        ........        ........        ........",
"        ........        ........        ........        ........",
"        ........        ........        ........        ........",
"        ........        ........        ........        ........",
"        ........        ........        ........        ........",
"        ........        ........        ........        ........",
"        ........        ........        ........        ........",
"        ........        ........        ........        ........",
"        ........        ........        ........        ........",
"        ........        ........        ........        ........",
"        ........        ........        ........        ........",
"        ........        ........        ........        ........",
"        ........        ........        ........        ........",
"        ........        ........        ........        ........",
"        ........        ........        ........        ........",
"        ........        ........        ........        ........",
"        ........        ........        ........        ........",
"        ........        ........        ........        ........",
"        ........        ........        ........        ........",
"        ........        ........        ........        ........",
"        ........        ........        ........        ........",
"        ........        ........        ........        ........",
"        ........        ........        ........        ........",
"        ........        ........        ........        ........",
"        ........        ........        ........        ........",
"        ........        ........        ........        ........",
"        ........        ........        ........        ........",
"        ........        ........        ........        ........",
"        ........        ........        ........        ........",
"        ........        ........        ........        ........",
"        ........        ........        ........        ........",
"        ........        ........        ........        ........",
"        ........        ........        ........        ........",
"        ........        ........        ........        ........",
"        ........        ........        ........        ........",
"        ........        ........        ........        ........",
"        ........        ........        ........        ........",
"        ........        ........        ........        ........",
"        ........        ........        ........        ........",
"        ........        ........        ........        ........",
"        ........        ........        ........        ........",
"        ........        ........        ........        ........",
"        ........        ........        ........        ........",
"        ........        ........        ........        ........",
"        ........        ........        ........        ........",
"        ........        ........        ........        ........",
"        ........        ........        ........        ........",
"        ........        ........        ........        ........",
"        ........        ........        ........        ........",
"        ........        ........        ........        ........",
"        ........        ........        ........        ........",
"        ........        ........        ........        ........",
"        ........        ........        ........        ........",
"        ........        ........        ........        ........",
"        ........        ........        ........        ........",
"        ........        ........        ........        ........",
"        ........        ........        ........        ........",
"        ........        ........        ........        ........",
"        ........        ........        ........        ........",
"        ........        ........        ........        ........",
"        ........        ........        ........        ........",
"        ........        ........        ........        ........",
"        ........        ........        ........        ........",
"        ........        ........        ........        ........",
"        ........        ........        ........        ........",
"        ........        ........        ........        ........",
"        ........        ........        ........        ........",
"        ........        ........        ........        ........",
"        ........        ........        ........        ........",
"        ........        ........        ........        ........",
"        ........        ........        ........        ........",
"        ........        ........        ........        ........",
"        ........        ........        ........        ........",
"        ........        ........        ........        ........",
"        ........        ........        ........        ........",
"        ........        ........        ........        ........",
"        ........        ........        ........        ........",
"        ........        ........        ........        ........",
"        ........        ........        ........        ........",
"        ........        ........        ........        ........",
"        ........        ........        ........        ........",
"        ........        ........        ........        ........",
"        ........        ........        ........        ........",
"        ........        ........        ........        ........",
"        ........        ........        ........        ........",
"        ........        ........        ........        ........",
"        ........        ........        ........        ........",
"        ........        ........        ........        ........",
"        ........        ........        ........        ........",
"        ........        ........        ........        ........",
"        ........        ........        ........        ........",
"        ........        ........        ........        ........",
"        ........        ........        ........        ........",
"        ........        ........        ........        ........",
"        ........        ........        ........        ........",
"        ........        ........        ........        ........",
"        ........        ........        ........        ........",
"        ........        ........        ........        ........",
"        ........        ........        ........        ........",
"        ........        ........        ........        ........",
"        ........        ........        ........        ........",
"        ........        ........        ........        ........",
"        ........        ........        ........        ........",
"        ........        ........        ........        ........",
"        ........        ........        ........        ........"
};
