/* XPM */
static char *_d4acf6193874b3dfd70db8fa98e34d8eK2nYewoLURbW7I2[] = {
/* columns rows colors chars-per-pixel */
"64 128 3 1 ",
"  c #990030",
". c #FFA3B1",
"X c white",
/* pixels */
"       .X      .X   X  .X  .X  .X  .X  .X  .X  .X  .X  .X  .X  .",
"                                                                ",
"                          X  .    X  .X  .X  .X.X.X  .X.X.X.X.X.",
"                                                                ",
"   .X   X  .X  .X  .X  .X  .X  .X  .X  .X  .X  .X  .X  .X  .X X.",
"                                                                ",
"                      X  .X  .X  .X  .X  .X.X.X.X.X.X.X.X.X.X.X.",
"                                                                ",
"X   X  .X  .X  .X  .X  .X  .X  .X  .X  .X  .X  .X X.X. .X X.X. .",
"                                                                ",
"          X  .    X  .X X.X  .X.X.X  .X.X.X.X.X.X.X.X.X.X.X.X.X.",
"                                                                ",
"X  .X  .X  .X  .X  .X  .X  .X  .X  .X  .X  .X X.X. .X.X.X.X.X.X.",
"                                                                ",
"      X  .X  .X  .X  .X  .X.X.X.X.X.X.X.X.X.X.X.X.X.X.X.X.X.X.X.",
"                                                                ",
"X  .X  .X  .X  .X  .X  .X  .X  .X X.X. .X X.X. .X.X.X.X.X.X.X.X.",
"                                                      .  X    . ",
"  X  .X X.X  .X.X.X  .X.X.X.X.X.X.X.X.X.X.X.X.X.X.X.X.X.X.X.X.X.",
"                                                                ",
"X  .X  .X  .X  .X  .X  .X  .X X.X.X.X.X.X.X.X.X.X.X.X.X.X.X.X.X.",
"                                                  .  X.  X.  X. ",
" .X  .X  .X.X.X.X.X.X.X.X.X.X.X.X.X.X.X.X.X.X.X.X.X.X.X.X.X.X.X.",
"                                                                ",
"X  .X  .X  .X  .X X.X. .X X.X. .X.X.X.X.X.X.X.X.X.X.X.X.X.X.X.X.",
"                                      .  X    .  X.  X.  X.  X. ",
"X.X  .X.X.X.X.X.X.X.X.X.X.X.X.X.X.X.X.X.X.X.X.X.X.X.X.X.X.X.X.X.",
"                                                   X.      X.   ",
"X  .X  .X  .X X.X.X.X.X.X.X.X.X.X.X.X.X.X.X.X.X.X.X.X.X.X.X.X.X.",
"                                  .  X.  X.  X.  X.  X.  X.  X. ",
"X.X.X.X.X.X.X.X.X.X.X.X.X.X.X.X.X.X.X.X.X.X.X.X.X.X.X.X.X.X.X.X.",
"                                               X.   .  X.  X.  X",
"X X.X. .X X.X.X.X.X.X.X.X.X.X.X.X.X.X.X.X.X.X.X.X.X.X.X.X.X.X.X.",
"                 X    .  X    .  X.  X.  X.  X.  X.  X.  X.  X. ",
"X.X.X.X.X.X.X.X.X.X.X.X.X.X.X.X.X.X.X.X.X.X.X.X.X.X.X.X.X.X.X.X.",
"                                   X.      X.      X. .X.X X. .X",
"X.X.X.X.X.X.X.X.X.X.X.X.X.X.X.X.X.X.X.X.X.X.X.X.X.X.X.X.X.X.X.X.",
"                  .  X.  X.  X.  X.  X.  X.  X.  X.  X.  X.  X. ",
"X.X.X.X.X.X.X.X.X.X.X.X.X.X.X.X.X.X.X.X.X.X.X.X.X.X.X.X.X.X.X.X.",
"                               X.   .  X.  X.  X.  X.X X.X.X.X.X",
"X.X.X.X.X.X.X.X.X.X.X.X.X.X.X.X.X.X.X.X.X.X.X.X.X.X.X.X.X.X.X.X.",
" X    .  X    .  X.  X.  X.  X.  X.  X.  X.  X.  X.  X.  X.  X. ",
"X.X.X.X.X.X.X.X.X.X.X.X.X.X.X.X.X.X.X.X.X.X.X.X.X.X.X.X.X.X.X.X.",
"                   X.      X.      X. .X.X X. .X.X X.X.X.X.X.X.X",
"X.X.X.X.X.X.X.X.X.X.X.X.X.X.X.X.X.X.X.X.X.X.X.X.X.X.X.X.X.X.X.X.",
"  .  X.  X.  X.  X.  X.  X.  X.  X.  X.  X.  X.  X.  X.  X.  X.X",
"X.X.X.X.X.X.X.X.X.X.X.X.X.X.X.X.X.X.X.X.X.X.X.X.X.X.X.X.X.X.X.X.",
"               X.  X.  X.  X.  X.  X.X X.X.X.X.X.X.X.X.X.X.X.X.X",
"X.X.X.X.X.X.X.X.X.X.X.X.X.X.X.X.X.X.X.X.X.X.X.X.X.X.X.X.X.X.X.X.",
" X.  X.  X.  X.  X.  X.  X.  X.  X.  X.  X.  X.  X.X.X.  X.X.X.X",
"X.X.X.X.X.X.X.X.X.X.X.X.X.X.X.X.X.X.X.X.X.X.X.X.X.X.X.X.X.X.X.X.",
"   X.      X.      X. .X.X X. .X.X X.X.X.X.X.X.X.X.X.X.X.X.X.X.X",
"X.X.X.X.X.X.X.X.X.X.X.X.X.X.X.X.X.X.X.X.X.X.X.X.X.X.X.X.X.X.X.X.",
" X.  X.  X.  X.  X.  X.  X.  X.  X.  X.  X.  X.X.X.X.X.X.X.X.X.X",
"X.X.X.X.X.X.X.X.X.X.X.X.X.X.X.X.X.X.X.X.X.X.X.X.X.X.X.X.X.X.X.X.",
".  X.  X.  X.  X. .X.X X.X.X.X.X.X.X.X.X.X.X.X.X.X.X.X.X.X.X.X.X",
"X.X.X.X.X.X.X.X.X.X.X.X.X.X.X.X.X.X.X.X.X.X.X.X.X.X.X.X.X.X.X.X.",
" X.  X.  X.  X.  X.  X.  X.  X.  X.X.X.  X.X.X.X.X.X.X...X.X.X..",
"X.X.X.X.X.X.X.X.X.X.X.X.X.X.X.X.X.X.X.X.X.X.X.X.X.X.X.X.X.X.X.X.",
".  X. .X.X X. .X.X X.X.X.X.X.X.X.X.X.X.X.X.X.X.X.X.X.X.X.X.X.X.X",
"X.X.X.X.X.X.X.X.X.X.X.X.X.X.X.X.X.X.X.X.X.X.X.X.X.X.X.X.X.X.X.X.",
" X.  X.  X.  X.  X.  X.  X.  X.X.X.X.X.X.X.X.X.X.X...X...X...X..",
"X.X.X.X.X.X.X.X.X.X.X.X.X.X.X.X.X.X.X.X.X.X.X.X.X.X.X.X.X.X.X.X.",
". .X.X X.X.X.X.X.X.X.X.X.X.X.X.X.X.X.X.X.X.X.X.X.X.X.X.X.X.X.X.X",
"X.X.X.X.X.X.X.X.X.X.X.X.X.X.X.X.X.X.X.X.X.X.X.X.X.X.X.X.X.X.X.X.",
" X.  X.  X.  X.  X.X.X.  X.X.X.X.X.X.X...X.X.X...X...X...X...X..",
"X.X.X.X.X.X.X.X.X.X.X.X.X.X.X.X.X.X.X.X.X.X.X.X.X.X.X.X.X.X.X.X.",
".X X.X.X.X.X.X.X.X.X.X.X.X.X.X.X.X.X.X.X.X.X.X.X.X.X...X.X.X...X",
"X.X.X.X.X.X.X.X.X.X.X.X.X.X.X.X.X.X.X.X.X.X.X.X.X.X.X.X.X.X.X.X.",
" X.  X.  X.  X.X.X.X.X.X.X.X.X.X.X...X...X...X...X...X...X...X..",
"X.X.X.X.X.X.X.X.X.X.X.X.X.X.X.X.X.X.X.X.X.X.X.X.X.X.X.X.X.X.X.X.",
".X.X.X.X.X.X.X.X.X.X.X.X.X.X.X.X.X.X.X.X.X.X.X.X...X...X...X...X",
"X.X.X.X.X.X.X.X.X.X.X.X.X.X.X.X.X.X.X.X.X.X.X.X.X.X.X.X.X.X.X.X.",
" X.X.X.  X.X.X.X.X.X.X...X.X.X...X...X...X...X...X...X...X...X..",
"X.X.X.X.X.X.X.X.X.X.X.X.X.X.X.X.X.X.X.X.X.X.X.X.X.X.X.X.X.X.X.X.",
".X.X.X.X.X.X.X.X.X.X.X.X.X.X.X.X.X.X...X.X.X...X...X.......X....",
"X.X.X.X.X.X.X.X.X.X.X.X.X.X.X.X.X.X.X.X.X.X.X.X.X.X.X.X.X.X.X.X.",
".X.X.X.X.X.X.X.X.X...X...X...X...X...X...X...X...X...X...X...X..",
"X.X.X.X.X.X.X.X.X.X.X.X.X.X.X.X.X.X.X.X.X.X.X.X.X.X.X.X.X.X.X.X.",
".X.X.X.X.X.X.X.X.X.X.X.X.X.X.X.X...X...X...X...X................",
"X.X.X.X.X.X.X.X.X.X.X.X.X.X.X.X.X.X.X.X.X.X.X.X.X.X.X.X.X.X.X.X.",
".X.X.X...X.X.X...X...X...X...X...X...X...X...X...X...X...X......",
"X.X.X.X.X.X.X.X.X.X.X.X.X.X.X.X.X.X.X.X.X.X.X.X.X.X.X.X.X.X.X.X.",
".X.X.X.X.X.X.X.X.X.X...X.X.X...X...X.......X....................",
"X.X.X.X.X.X.X.X.X.X.X.X.X.X.X.X.X.X.X.X.X.X.X.X.X.X.X.X.X.X.X.X.",
".X...X...X...X...X...X...X...X...X...X...X...X...X...X.......X..",
"X.X.X.X.X.X.X.X.X.X.X.X.X.X.X.X.X.X.X.X.X.X.X.X.X.X.X.X.X.X.X.X.",
".X.X.X.X.X.X.X.X...X...X...X...X................................",
"X.X.X.X.X.X.X.X.X.X.X.X.X.X.X.X.X.X.X.X.X.X.X.X.X.X.X.X.X.X.X.X.",
".X...X...X...X...X...X...X...X...X...X...X.......X.......X......",
"X.X.X.X.X.X.X.X.X.X.X.X.X.X.X.X.X.X.X.X.X.X.X.X.X.X.X.X.X.X.X.X.",
".X.X...X.X.X...X...X.......X....................................",
"X.X.X.X.X.X.X.X.X.X.X.X.X.X.X.X.X.X.X.X.X.X.X.X.X.X.X.X.X.X.X.X.",
".X...X...X...X...X...X...X...X...X...X.......X..................",
"X.X.X.X.X.X.X.X.X.X.X.X.X.X.X.X.X.X.X.X.X.X.X.X.X.X.X.X.X.X.X.X.",
"...X...X...X...X................................................",
"X.X.X.X.X.X.X.X.X.X.X.X.X.X.X.X.X.X.X.X.X.X.X.X.X.X.X...X.X.X...",
".X...X...X...X...X...X...X.......X.......X......................",
"X.X.X.X.X.X.X.X.X.X.X.X.X.X.X.X.X.X.X.X.X.X.X.X.X.X.X.X.X.X.X.X.",
"...X.......X....................................................",
"X.X.X.X.X.X.X.X.X.X.X.X.X.X.X.X.X.X.X.X.X.X.X.X.X...X...X...X...",
".X...X...X...X...X...X..........................................",
"X.X.X.X.X.X.X.X.X.X.X.X.X.X.X.X.X.X.X.X.X.X.X.X.X.X.X.X.X.X.X.X.",
"................................................................",
"X.X.X.X.X.X.X.X.X.X.X.X.X.X.X.X.X.X.X...X.X.X...X...X...X...X...",
".X...X...X.......X.......X......................................",
"X.X.X.X.X.X.X.X.X.X.X.X.X.X.X.X.X.X.X.X.X.X.X.X.X.X...X.X.X...X.",
"................................................................",
"X.X.X.X.X.X.X.X.X.X.X.X.X.X.X.X.X...X...X...X...X...X...X...X...",
".X...X..........................................................",
"X.X.X.X.X.X.X.X.X.X.X.X.X.X.X.X.X.X.X.X.X.X.X.X...X...X...X...X.",
"................................................................",
"X.X.X.X.X.X.X.X.X.X.X...X.X.X...X...X...X...X...X...X...X...X...",
".X.......X......................................................",
"X.X.X.X.X.X.X.X.X.X.X.X.X.X.X.X.X.X...X.X.X...X...X.......X.....",
"................................................................",
"X.X.X.X.X.X.X.X.X...X...X...X...X...X...X...X...X...X...X...X...",
"................................................................",
"X.X.X.X.X.X.X.X.X.X.X.X.X.X.X.X...X...X...X...X.................",
"................................................................",
"X.X.X...X.X.X...X...X...X...X...X...X...X...X...X...X...X.......",
"................................................................",
"X.X.X.X.X.X.X.X.X.X...X.X.X...X...X.......X.......X.............",
"................................................................",
"X...X...X...X...X...X...X...X...X...X...X...X...X...X...X...X...",
"................................................................",
"X.X.X.X.X.X.X.X...X...X...X...X.................................",
"................................................................"
};
