/* XPM */
static char *cc4f2ee70344441ff7c4d07b8952a7b4o6hmPRYtRbM5Cnj1[] = {
/* columns rows colors chars-per-pixel */
"128 64 2 1 ",
"  c black",
". c white",
/* pixels */
"        ........        ........        ........        ........        ........        ........        ........        ........",
"        ........        ........        ........        ........        ........        ........        ........        ........",
"        ........        ........        ........        ........        ........        ........        ........        ........",
"        ........        ........        ........        ........        ........        ........        ........        ........",
"        ........        ........        ........        ........        ........        ........        ........        ........",
"        ........        ........        ........        ........        ........        ........        ........        ........",
"        ........        ........        ........        ........        ........        ........        ........        ........",
"        ........        ........        ........        ........        ........        ........        ........        ........",
"........        ........        ........        ........        ........        ........        ........        ........        ",
"........        ........        ........        ........        ........        ........        ........        ........        ",
"........        ........        ........        ........        ........        ........        ........        ........        ",
"........        ........        ........        ........        ........        ........        ........        ........        ",
"........        ........        ........        ........        ........        ........        ........        ........        ",
"........        ........        ........        ........        ........        ........        ........        ........        ",
"........        ........        ........        ........        ........        ........        ........        ........        ",
"........        ........        ........        ........        ........        ........        ........        ........        ",
"        ........        ........        ........        ........        ........        ........        ........        ........",
"        ........        ........        ........        ........        ........        ........        ........        ........",
"        ........        ........        ........        ........        ........        ........        ........        ........",
"        ........        ........        ........        ........        ........        ........        ........        ........",
"        ........        ........        ........        ........        ........        ........        ........        ........",
"        ........        ........        ........        ........        ........        ........        ........        ........",
"        ........        ........        ........        ........        ........        ........        ........        ........",
"        ........        ........        ........        ........        ........        ........        ........        ........",
"........        ........        ........        ........        ........        ........        ........        ........        ",
"........        ........        ........        ........        ........        ........        ........        ........        ",
"........        ........        ........        ........        ........        ........        ........        ........        ",
"........        ........        ........        ........        ........        ........        ........        ........        ",
"........        ........        ........        ........        ........        ........        ........        ........        ",
"........        ........        ........        ........        ........        ........        ........        ........        ",
"........        ........        ........        ........        ........        ........        ........        ........        ",
"........        ........        ........        ........        ........        ........        ........        ........        ",
"        ........        ........        ........        ........        ........        ........        ........        ........",
"        ........        ........        ........        ........        ........        ........        ........        ........",
"        ........        ........        ........        ........        ........        ........        ........        ........",
"        ........        ........        ........        ........        ........        ........        ........        ........",
"        ........        ........        ........        ........        ........        ........        ........        ........",
"        ........        ........        ........        ........        ........        ........        ........        ........",
"        ........        ........        ........        ........        ........        ........        ........        ........",
"        ........        ........        ........        ........        ........        ........        ........        ........",
"........        ........        ........        ........        ........        ........        ........        ........        ",
"........        ........        ........        ........        ........        ........        ........        ........        ",
"........        ........        ........        ........        ........        ........        ........        ........        ",
"........        ........        ........        ........        ........        ........        ........        ........        ",
"........        ........        ........        ........        ........        ........        ........        ........        ",
"........        ........        ........        ........        ........        ........        ........        ........        ",
"........        ........        ........        ........        ........        ........        ........        ........        ",
"........        ........        ........        ........        ........        ........        ........        ........        ",
"        ........        ........        ........        ........        ........        ........        ........        ........",
"        ........        ........        ........        ........        ........        ........        ........        ........",
"        ........        ........        ........        ........        ........        ........        ........        ........",
"        ........        ........        ........        ........        ........        ........        ........        ........",
"        ........        ........        ........        ........        ........        ........        ........        ........",
"        ........        ........        ........        ........        ........        ........        ........        ........",
"        ........        ........        ........        ........        ........        ........        ........        ........",
"        ........        ........        ........        ........        ........        ........        ........        ........",
"........        ........        ........        ........        ........        ........        ........        ........        ",
"........        ........        ........        ........        ........        ........        ........        ........        ",
"........        ........        ........        ........        ........        ........        ........        ........        ",
"........        ........        ........        ........        ........        ........        ........        ........        ",
"........        ........        ........        ........        ........        ........        ........        ........        ",
"........        ........        ........        ........        ........        ........        ........        ........        ",
"........        ........        ........        ........        ........        ........        ........        ........        ",
"........        ........        ........        ........        ........        ........        ........        ........        "
};
