/* XPM */
static char *_0f46435d2274e32fb5b3fc03b9dfe3f15g4hp8JOiWdgLMJ[] = {
/* columns rows colors chars-per-pixel */
"128 64 2 1 ",
"  c #990030",
". c #FFA3B1",
/* pixels */
"        ........        ........        ........        ........        ........        ........        ........        ........",
"        ........        ........        ........        ........        ........        ........        ........        ........",
"        ........        ........        ........        ........        ........        ........        ........        ........",
"        ........        ........        ........        ........        ........        ........        ........        ........",
"        ........        ........        ........        ........        ........        ........        ........        ........",
"        ........        ........        ........        ........        ........        ........        ........        ........",
"        ........        ........        ........        ........        ........        ........        ........        ........",
"        ........        ........        ........        ........        ........        ........        ........        ........",
"........        ........        ........        ........        ........        ........        ........        ........        ",
"........        ........        ........        ........        ........        ........        ........        ........        ",
"........        ........        ........        ........        ........        ........        ........        ........        ",
"........        ........        ........        ........        ........        ........        ........        ........        ",
"........        ........        ........        ........        ........        ........        ........        ........        ",
"........        ........        ........        ........        ........        ........        ........        ........        ",
"........        ........        ........        ........        ........        ........        ........        ........        ",
"........        ........        ........        ........        ........        ........        ........        ........        ",
"        ........        ........        ........        ........        ........        ........        ........        ........",
"        ........        ........        ........        ........        ........        ........        ........        ........",
"        ........        ........        ........        ........        ........        ........        ........        ........",
"        ........        ........        ........        ........        ........        ........        ........        ........",
"        ........        ........        ........        ........        ........        ........        ........        ........",
"        ........        ........        ........        ........        ........        ........        ........        ........",
"        ........        ........        ........        ........        ........        ........        ........        ........",
"        ........        ........        ........        ........        ........        ........        ........        ........",
"........        ........        ........        ........        ........        ........        ........        ........        ",
"........        ........        ........        ........        ........        ........        ........        ........        ",
"........        ........        ........        ........        ........        ........        ........        ........        ",
"........        ........        ........        ........        ........        ........        ........        ........        ",
"........        ........        ........        ........        ........        ........        ........        ........        ",
"........        ........        ........        ........        ........        ........        ........        ........        ",
"........        ........        ........        ........        ........        ........        ........        ........        ",
"........        ........        ........        ........        ........        ........        ........        ........        ",
"        ........        ........        ........        ........        ........        ........        ........        ........",
"        ........        ........        ........        ........        ........        ........        ........        ........",
"        ........        ........        ........        ........        ........        ........        ........        ........",
"        ........        ........        ........        ........        ........        ........        ........        ........",
"        ........        ........        ........        ........        ........        ........        ........        ........",
"        ........        ........        ........        ........        ........        ........        ........        ........",
"        ........        ........        ........        ........        ........        ........        ........        ........",
"        ........        ........        ........        ........        ........        ........        ........        ........",
"........        ........        ........        ........        ........        ........        ........        ........        ",
"........        ........        ........        ........        ........        ........        ........        ........        ",
"........        ........        ........        ........        ........        ........        ........        ........        ",
"........        ........        ........        ........        ........        ........        ........        ........        ",
"........        ........        ........        ........        ........        ........        ........        ........        ",
"........        ........        ........        ........        ........        ........        ........        ........        ",
"........        ........        ........        ........        ........        ........        ........        ........        ",
"........        ........        ........        ........        ........        ........        ........        ........        ",
"        ........        ........        ........        ........        ........        ........        ........        ........",
"        ........        ........        ........        ........        ........        ........        ........        ........",
"        ........        ........        ........        ........        ........        ........        ........        ........",
"        ........        ........        ........        ........        ........        ........        ........        ........",
"        ........        ........        ........        ........        ........        ........        ........        ........",
"        ........        ........        ........        ........        ........        ........        ........        ........",
"        ........        ........        ........        ........        ........        ........        ........        ........",
"        ........        ........        ........        ........        ........        ........        ........        ........",
"........        ........        ........        ........        ........        ........        ........        ........        ",
"........        ........        ........        ........        ........        ........        ........        ........        ",
"........        ........        ........        ........        ........        ........        ........        ........        ",
"........        ........        ........        ........        ........        ........        ........        ........        ",
"........        ........        ........        ........        ........        ........        ........        ........        ",
"........        ........        ........        ........        ........        ........        ........        ........        ",
"........        ........        ........        ........        ........        ........        ........        ........        ",
"........        ........        ........        ........        ........        ........        ........        ........        "
};
