/* XPM */
static char *_2f5d383ffbe4f088964ebf5fbcb75738lPrJQAnpXlDc1zY[] = {
/* columns rows colors chars-per-pixel */
"128 128 3 1 ",
"  c black",
". c #FF8000",
"X c #008080",
/* pixels */
"................................................................................................................................",
".               .          X    .               .    X          .               .          X    .               .    X          ",
". X X X X X X X .  X   X  X  X  . X X X X X X X .  X  X  X   X  . X X X X X X X .  X   X  X  X  . X X X X X X X .  X  X  X   X  ",
".               .    X          .               .          X    .               .    X          .               .          X    ",
". X  X X X  X X . X X  X X X  X . X X  X X X  X . X  X X X  X X . X  X X X  X X . X X  X X X  X . X X  X X X  X . X  X X X  X X ",
".          X    .               .    X          .               .          X    .               .    X          .               ",
".  X  X  X   X  . X X X X X X X .  X   X  X  X  . X X X X X X X .  X  X  X   X  . X X X X X X X .  X   X  X  X  . X X X X X X X ",
".    X          .               .          X    .               .    X          .               .          X    .               ",
"................................................................................................................................",
"        .          X    .               .    X          .               .          X    .               .    X          .       ",
"X X X X .  X   X  X  X  . X X X X X X X .  X  X  X   X  . X X X X X X X .  X   X  X  X  . X X X X X X X .  X  X  X   X  .  X   X",
"        .    X          .               .          X    .               .    X          .               .          X    .    X  ",
" X  X X . X X  X X X  X . X X  X X X  X . X  X X X  X X . X  X X X  X X . X X  X X X  X . X X  X X X  X . X  X X X  X X . X X  X",
"   X    .               .    X          .               .          X    .               .    X          .               .       ",
" X   X  . X X X X X X X .  X   X  X  X  . X X X X X X X .  X  X  X   X  . X X X X X X X .  X   X  X  X  . X X X X X X X . X X X ",
"        .               .          X    .               .    X          .               .          X    .               .       ",
"................................................................................................................................",
".               .          X    .               .    X          .               .          X    .               .    X          ",
". X X X X X X X .  X   X  X  X  . X X X X X X X .  X  X  X   X  . X X X X X X X .  X   X  X  X  . X X X X X X X .  X  X  X   X  ",
".               .    X          .               .          X    .               .    X          .               .          X    ",
". X  X X X  X X . X X  X X X  X . X X  X X X  X . X  X X X  X X . X  X X X  X X . X X  X X X  X . X X  X X X  X . X  X X X  X X ",
".          X    .               .    X          .               .          X    .               .    X          .               ",
".  X  X  X   X  . X X X X X X X .  X   X  X  X  . X X X X X X X .  X  X  X   X  . X X X X X X X .  X   X  X  X  . X X X X X X X ",
".    X          .               .          X    .               .    X          .               .          X    .               ",
"................................................................................................................................",
"        .          X    .               .    X          .               .          X    .               .    X          .       ",
"X X X X .  X   X  X  X  . X X X X X X X .  X  X  X   X  . X X X X X X X .  X   X  X  X  . X X X X X X X .  X  X  X   X  .  X   X",
"        .    X          .               .          X    .               .    X          .               .          X    .    X  ",
" X  X X . X X  X X X  X . X X  X X X  X . X  X X X  X X . X  X X X  X X . X X  X X X  X . X X  X X X  X . X  X X X  X X . X X  X",
"   X    .               .    X          .               .          X    .               .    X          .               .       ",
" X   X  . X X X X X X X .  X   X  X  X  . X X X X X X X .  X  X  X   X  . X X X X X X X .  X   X  X  X  . X X X X X X X . X X X ",
"        .               .          X    .               .    X          .               .          X    .               .       ",
"................................................................................................................................",
".               .          X    .               .    X          .               .          X    .               .    X          ",
". X X X X X X X .  X   X  X  X  . X X X X X X X .  X  X  X   X  . X X X X X X X .  X   X  X  X  . X X X X X X X .  X  X  X   X  ",
".               .    X          .               .          X    .               .    X          .               .          X    ",
". X  X X X  X X . X X  X X X  X . X X  X X X  X . X  X X X  X X . X  X X X  X X . X X  X X X  X . X X  X X X  X . X  X X X  X X ",
".          X    .               .    X          .               .          X    .               .    X          .               ",
".  X  X  X   X  . X X X X X X X .  X   X  X  X  . X X X X X X X .  X  X  X   X  . X X X X X X X .  X   X  X  X  . X X X X X X X ",
".    X          .               .          X    .               .    X          .               .          X    .               ",
"................................................................................................................................",
"        .          X    .               .    X          .               .          X    .               .    X          .       ",
"X X X X .  X   X  X  X  . X X X X X X X .  X  X  X   X  . X X X X X X X .  X   X  X  X  . X X X X X X X .  X  X  X   X  .  X   X",
"        .    X          .               .          X    .               .    X          .               .          X    .    X  ",
" X  X X . X X  X X X  X . X X  X X X  X . X  X X X  X X . X  X X X  X X . X X  X X X  X . X X  X X X  X . X  X X X  X X . X X  X",
"   X    .               .    X          .               .          X    .               .    X          .               .       ",
" X   X  . X X X X X X X .  X   X  X  X  . X X X X X X X .  X  X  X   X  . X X X X X X X .  X   X  X  X  . X X X X X X X . X X X ",
"        .               .          X    .               .    X          .               .          X    .               .       ",
"................................................................................................................................",
".               .          X    .               .    X          .               .          X    .               .    X          ",
". X X X X X X X .  X   X  X  X  . X X X X X X X .  X  X  X   X  . X X X X X X X .  X   X  X  X  . X X X X X X X .  X  X  X   X  ",
".               .    X          .               .          X    .               .    X          .               .          X    ",
". X  X X X  X X . X X  X X X  X . X X  X X X  X . X  X X X  X X . X  X X X  X X . X X  X X X  X . X X  X X X  X . X  X X X  X X ",
".          X    .               .    X          .               .          X    .               .    X          .               ",
".  X  X  X   X  . X X X X X X X .  X   X  X  X  . X X X X X X X .  X  X  X   X  . X X X X X X X .  X   X  X  X  . X X X X X X X ",
".    X          .               .          X    .               .    X          .               .          X    .               ",
"................................................................................................................................",
"        .          X    .               .    X          .               .          X    .               .    X          .       ",
"X X X X .  X   X  X  X  . X X X X X X X .  X  X  X   X  . X X X X X X X .  X   X  X  X  . X X X X X X X .  X  X  X   X  .  X   X",
"        .    X          .               .          X    .               .    X          .               .          X    .    X  ",
" X  X X . X X  X X X  X . X X  X X X  X . X  X X X  X X . X  X X X  X X . X X  X X X  X . X X  X X X  X . X  X X X  X X . X X  X",
"   X    .               .    X          .               .          X    .               .    X          .               .       ",
" X   X  . X X X X X X X .  X   X  X  X  . X X X X X X X .  X  X  X   X  . X X X X X X X .  X   X  X  X  . X X X X X X X . X X X ",
"        .               .          X    .               .    X          .               .          X    .               .       ",
"................................................................................................................................",
".               .          X    .               .    X          .               .          X    .               .    X          ",
". X X X X X X X .  X   X  X  X  . X X X X X X X .  X  X  X   X  . X X X X X X X .  X   X  X  X  . X X X X X X X .  X  X  X   X  ",
".               .    X          .               .          X    .               .    X          .               .          X    ",
". X  X X X  X X . X X  X X X  X . X X  X X X  X . X  X X X  X X . X  X X X  X X . X X  X X X  X . X X  X X X  X . X  X X X  X X ",
".          X    .               .    X          .               .          X    .               .    X          .               ",
".  X  X  X   X  . X X X X X X X .  X   X  X  X  . X X X X X X X .  X  X  X   X  . X X X X X X X .  X   X  X  X  . X X X X X X X ",
".    X          .               .          X    .               .    X          .               .          X    .               ",
"................................................................................................................................",
"        .          X    .               .    X          .               .          X    .               .    X          .       ",
"X X X X .  X   X  X  X  . X X X X X X X .  X  X  X   X  . X X X X X X X .  X   X  X  X  . X X X X X X X .  X  X  X   X  .  X   X",
"        .    X          .               .          X    .               .    X          .               .          X    .    X  ",
" X  X X . X X  X X X  X . X X  X X X  X . X  X X X  X X . X  X X X  X X . X X  X X X  X . X X  X X X  X . X  X X X  X X . X X  X",
"   X    .               .    X          .               .          X    .               .    X          .               .       ",
" X   X  . X X X X X X X .  X   X  X  X  . X X X X X X X .  X  X  X   X  . X X X X X X X .  X   X  X  X  . X X X X X X X . X X X ",
"        .               .          X    .               .    X          .               .          X    .               .       ",
"................................................................................................................................",
".               .          X    .               .    X          .               .          X    .               .    X          ",
". X X X X X X X .  X   X  X  X  . X X X X X X X .  X  X  X   X  . X X X X X X X .  X   X  X  X  . X X X X X X X .  X  X  X   X  ",
".               .    X          .               .          X    .               .    X          .               .          X    ",
". X  X X X  X X . X X  X X X  X . X X  X X X  X . X  X X X  X X . X  X X X  X X . X X  X X X  X . X X  X X X  X . X  X X X  X X ",
".          X    .               .    X          .               .          X    .               .    X          .               ",
".  X  X  X   X  . X X X X X X X .  X   X  X  X  . X X X X X X X .  X  X  X   X  . X X X X X X X .  X   X  X  X  . X X X X X X X ",
".    X          .               .          X    .               .    X          .               .          X    .               ",
"................................................................................................................................",
"        .          X    .               .    X          .               .          X    .               .    X          .       ",
"X X X X .  X   X  X  X  . X X X X X X X .  X  X  X   X  . X X X X X X X .  X   X  X  X  . X X X X X X X .  X  X  X   X  .  X   X",
"        .    X          .               .          X    .               .    X          .               .          X    .    X  ",
" X  X X . X X  X X X  X . X X  X X X  X . X  X X X  X X . X  X X X  X X . X X  X X X  X . X X  X X X  X . X  X X X  X X . X X  X",
"   X    .               .    X          .               .          X    .               .    X          .               .       ",
" X   X  . X X X X X X X .  X   X  X  X  . X X X X X X X .  X  X  X   X  . X X X X X X X .  X   X  X  X  . X X X X X X X . X X X ",
"        .               .          X    .               .    X          .               .          X    .               .       ",
"................................................................................................................................",
".               .          X    .               .    X          .               .          X    .               .    X          ",
". X X X X X X X .  X   X  X  X  . X X X X X X X .  X  X  X   X  . X X X X X X X .  X   X  X  X  . X X X X X X X .  X  X  X   X  ",
".               .    X          .               .          X    .               .    X          .               .          X    ",
". X  X X X  X X . X X  X X X  X . X X  X X X  X . X  X X X  X X . X  X X X  X X . X X  X X X  X . X X  X X X  X . X  X X X  X X ",
".          X    .               .    X          .               .          X    .               .    X          .               ",
".  X  X  X   X  . X X X X X X X .  X   X  X  X  . X X X X X X X .  X  X  X   X  . X X X X X X X .  X   X  X  X  . X X X X X X X ",
".    X          .               .          X    .               .    X          .               .          X    .               ",
"................................................................................................................................",
"        .          X    .               .    X          .               .          X    .               .    X          .       ",
"X X X X .  X   X  X  X  . X X X X X X X .  X  X  X   X  . X X X X X X X .  X   X  X  X  . X X X X X X X .  X  X  X   X  .  X   X",
"        .    X          .               .          X    .               .    X          .               .          X    .    X  ",
" X  X X . X X  X X X  X . X X  X X X  X . X  X X X  X X . X  X X X  X X . X X  X X X  X . X X  X X X  X . X  X X X  X X . X X  X",
"   X    .               .    X          .               .          X    .               .    X          .               .       ",
" X   X  . X X X X X X X .  X   X  X  X  . X X X X X X X .  X  X  X   X  . X X X X X X X .  X   X  X  X  . X X X X X X X . X X X ",
"        .               .          X    .               .    X          .               .          X    .               .       ",
"................................................................................................................................",
".               .          X    .               .    X          .               .          X    .               .    X          ",
". X X X X X X X .  X   X  X  X  . X X X X X X X .  X  X  X   X  . X X X X X X X .  X   X  X  X  . X X X X X X X .  X  X  X   X  ",
".               .    X          .               .          X    .               .    X          .               .          X    ",
". X  X X X  X X . X X  X X X  X . X X  X X X  X . X  X X X  X X . X  X X X  X X . X X  X X X  X . X X  X X X  X . X  X X X  X X ",
".          X    .               .    X          .               .          X    .               .    X          .               ",
".  X  X  X   X  . X X X X X X X .  X   X  X  X  . X X X X X X X .  X  X  X   X  . X X X X X X X .  X   X  X  X  . X X X X X X X ",
".    X          .               .          X    .               .    X          .               .          X    .               ",
"................................................................................................................................",
"        .          X    .               .    X          .               .          X    .               .    X          .       ",
"X X X X .  X   X  X  X  . X X X X X X X .  X  X  X   X  . X X X X X X X .  X   X  X  X  . X X X X X X X .  X  X  X   X  .  X   X",
"        .    X          .               .          X    .               .    X          .               .          X    .    X  ",
" X  X X . X X  X X X  X . X X  X X X  X . X  X X X  X X . X  X X X  X X . X X  X X X  X . X X  X X X  X . X  X X X  X X . X X  X",
"   X    .               .    X          .               .          X    .               .    X          .               .       ",
" X   X  . X X X X X X X .  X   X  X  X  . X X X X X X X .  X  X  X   X  . X X X X X X X .  X   X  X  X  . X X X X X X X . X X X ",
"        .               .          X    .               .    X          .               .          X    .               .       "
};
