/* XPM */
static char *_04d248f025e4564e911a81933483d43LYGrJxiGlNxl1LcA[] = {
/* columns rows colors chars-per-pixel */
"128 128 3 1 ",
"  c black",
". c #FF8000",
"X c #008080",
/* pixels */
"...................................................................................................................... .       .",
".       .       .       .       .       .       .       .       .       .       .       .       .       .       .     . ........",
". X X X . X X X . X X X . X X X . X X X . X X X . X X X . X X X . X X X . X X X . X X X . X X X . X X X . X X X . X X ..   .   .",
".       .       .       .       .       .       .       .       .       .       .       .       .       .       .     ..   .   .",
"...................................................................................................................... .   .   .",
"    .       .       .       .       .       .       .       .       .       .       .       .       .       .       . . ........",
"X X . X X X . X X X . X X X . X X X . X X X . X X X . X X X . X X X . X X X . X X X . X X X . X X X . X X X . X X X . ..       .",
"    .       .       .       .       .       .       .       .       .       .       .       .       .       .       . ..       .",
"...................................................................................................................... .       .",
".       .       .       .       .       .       .       .       .       .       .       .       .       .       .     . ........",
". X X X . X X X . X X X . X X X . X X X . X X X . X X X . X X X . X X X . X X X . X X X . X X X . X X X . X X X . X X ..   .   .",
".       .       .       .       .       .       .       .       .       .       .       .       .       .       .     ..   .   .",
"...................................................................................................................... .   .   .",
"    .       .       .       .       .       .       .       .       .       .       .       .       .       .       . . ........",
"X X . X X X . X X X . X X X . X X X . X X X . X X X . X X X . X X X . X X X . X X X . X X X . X X X . X X X . X X X . ..       .",
"    .       .       .       .       .       .       .       .       .       .       .       .       .       .       . ..       .",
"...................................................................................................................... .       .",
".       .       .       .       .       .       .       .       .       .       .       .       .       .       .     . ........",
". X X X . X X X . X X X . X X X . X X X . X X X . X X X . X X X . X X X . X X X . X X X . X X X . X X X . X X X . X X ..   .   .",
".       .       .       .       .       .       .       .       .       .       .       .       .       .       .     ..   .   .",
"...................................................................................................................... .   .   .",
"    .       .       .       .       .       .       .       .       .       .       .       .       .       .       . . ........",
"X X . X X X . X X X . X X X . X X X . X X X . X X X . X X X . X X X . X X X . X X X . X X X . X X X . X X X . X X X . ..       .",
"    .       .       .       .       .       .       .       .       .       .       .       .       .       .       . ..       .",
"...................................................................................................................... .       .",
".       .       .       .       .       .       .       .       .       .       .       .       .       .       .     . ........",
". X X X . X X X . X X X . X X X . X X X . X X X . X X X . X X X . X X X . X X X . X X X . X X X . X X X . X X X . X X ..   .   .",
".       .       .       .       .       .       .       .       .       .       .       .       .       .       .     ..   .   .",
"...................................................................................................................... .   .   .",
"    .       .       .       .       .       .       .       .       .       .       .       .       .       .       . . ........",
"X X . X X X . X X X . X X X . X X X . X X X . X X X . X X X . X X X . X X X . X X X . X X X . X X X . X X X . X X X . ..       .",
"    .       .       .       .       .       .       .       .       .       .       .       .       .       .       . ..       .",
"...................................................................................................................... .       .",
".       .       .       .       .       .       .       .       .       .       .       .       .       .       .     . ........",
". X X X . X X X . X X X . X X X . X X X . X X X . X X X . X X X . X X X . X X X . X X X . X X X . X X X . X X X . X X ..   .   .",
".       .       .       .       .       .       .       .       .       .       .       .       .       .       .     ..   .   .",
"...................................................................................................................... .   .   .",
"    .       .       .       .       .       .       .       .       .       .       .       .       .       .       . . ........",
"X X . X X X . X X X . X X X . X X X . X X X . X X X . X X X . X X X . X X X . X X X . X X X . X X X . X X X . X X X . ..       .",
"    .       .       .       .       .       .       .       .       .       .       .       .       .       .       . ..       .",
"...................................................................................................................... .       .",
".       .       .       .       .       .       .       .       .       .       .       .       .       .       .     . ........",
". X X X . X X X . X X X . X X X . X X X . X X X . X X X . X X X . X X X . X X X . X X X . X X X . X X X . X X X . X X ..   .   .",
".       .       .       .       .       .       .       .       .       .       .       .       .       .       .     ..   .   .",
"...................................................................................................................... .   .   .",
"    .       .       .       .       .       .       .       .       .       .       .       .       .       .       . . ........",
"X X . X X X . X X X . X X X . X X X . X X X . X X X . X X X . X X X . X X X . X X X . X X X . X X X . X X X . X X X . ..       .",
"    .       .       .       .       .       .       .       .       .       .       .       .       .       .       . ..       .",
"...................................................................................................................... .       .",
".       .       .       .       .       .       .       .       .       .       .       .       .       .       .     . ........",
". X X X . X X X . X X X . X X X . X X X . X X X . X X X . X X X . X X X . X X X . X X X . X X X . X X X . X X X . X X ..   .   .",
".       .       .       .       .       .       .       .       .       .       .       .       .       .       .     ..   .   .",
"...................................................................................................................... .   .   .",
"    .       .       .       .       .       .       .       .       .       .       .       .       .       .       . . ........",
"X X . X X X . X X X . X X X . X X X . X X X . X X X . X X X . X X X . X X X . X X X . X X X . X X X . X X X . X X X . ..       .",
"    .       .       .       .       .       .       .       .       .       .       .       .       .       .       . ..       .",
"...................................................................................................................... .       .",
".       .       .       .       .       .       .       .       .       .       .       .       .       .       .     . ........",
". X X X . X X X . X X X . X X X . X X X . X X X . X X X . X X X . X X X . X X X . X X X . X X X . X X X . X X X . X X ..   .   .",
".       .       .       .       .       .       .       .       .       .       .       .       .       .       .     ..   .   .",
"...................................................................................................................... .   .   .",
"    .       .       .       .       .       .       .       .       .       .       .       .       .       .       . . ........",
"X X . X X X . X X X . X X X . X X X . X X X . X X X . X X X . X X X . X X X . X X X . X X X . X X X . X X X . X X X . ..       .",
"    .       .       .       .       .       .       .       .       .       .       .       .       .       .       . ..       .",
"...................................................................................................................... .       .",
".       .       .       .       .       .       .       .       .       .       .       .       .       .       .     . ........",
". X X X . X X X . X X X . X X X . X X X . X X X . X X X . X X X . X X X . X X X . X X X . X X X . X X X . X X X . X X ..   .   .",
".       .       .       .       .       .       .       .       .       .       .       .       .       .       .     ..   .   .",
"...................................................................................................................... .   .   .",
"    .       .       .       .       .       .       .       .       .       .       .       .       .       .       . . ........",
"X X . X X X . X X X . X X X . X X X . X X X . X X X . X X X . X X X . X X X . X X X . X X X . X X X . X X X . X X X . ..       .",
"    .       .       .       .       .       .       .       .       .       .       .       .       .       .       . ..       .",
"...................................................................................................................... .       .",
".       .       .       .       .       .       .       .       .       .       .       .       .       .       .     . ........",
". X X X . X X X . X X X . X X X . X X X . X X X . X X X . X X X . X X X . X X X . X X X . X X X . X X X . X X X . X X ..   .   .",
".       .       .       .       .       .       .       .       .       .       .       .       .       .       .     ..   .   .",
"...................................................................................................................... .   .   .",
"    .       .       .       .       .       .       .       .       .       .       .       .       .       .       . . ........",
"X X . X X X . X X X . X X X . X X X . X X X . X X X . X X X . X X X . X X X . X X X . X X X . X X X . X X X . X X X . ..       .",
"    .       .       .       .       .       .       .       .       .       .       .       .       .       .       . ..       .",
"...................................................................................................................... .       .",
".       .       .       .       .       .       .       .       .       .       .       .       .       .       .     . ........",
". X X X . X X X . X X X . X X X . X X X . X X X . X X X . X X X . X X X . X X X . X X X . X X X . X X X . X X X . X X ..   .   .",
".       .       .       .       .       .       .       .       .       .       .       .       .       .       .     ..   .   .",
"...................................................................................................................... .   .   .",
"    .       .       .       .       .       .       .       .       .       .       .       .       .       .       . . ........",
"X X . X X X . X X X . X X X . X X X . X X X . X X X . X X X . X X X . X X X . X X X . X X X . X X X . X X X . X X X . ..       .",
"    .       .       .       .       .       .       .       .       .       .       .       .       .       .       . ..       .",
"...................................................................................................................... .       .",
".       .       .       .       .       .       .       .       .       .       .       .       .       .       .     . ........",
". X X X . X X X . X X X . X X X . X X X . X X X . X X X . X X X . X X X . X X X . X X X . X X X . X X X . X X X . X X ..   .   .",
".       .       .       .       .       .       .       .       .       .       .       .       .       .       .     ..   .   .",
"...................................................................................................................... .   .   .",
"    .       .       .       .       .       .       .       .       .       .       .       .       .       .       . . ........",
"X X . X X X . X X X . X X X . X X X . X X X . X X X . X X X . X X X . X X X . X X X . X X X . X X X . X X X . X X X . ..       .",
"    .       .       .       .       .       .       .       .       .       .       .       .       .       .       . ..       .",
"...................................................................................................................... .       .",
".       .       .       .       .       .       .       .       .       .       .       .       .       .       .     . ........",
". X X X . X X X . X X X . X X X . X X X . X X X . X X X . X X X . X X X . X X X . X X X . X X X . X X X . X X X . X X ..   .   .",
".       .       .       .       .       .       .       .       .       .       .       .       .       .       .     ..   .   .",
"...................................................................................................................... .   .   .",
"    .       .       .       .       .       .       .       .       .       .       .       .       .       .       . . ........",
"X X . X X X . X X X . X X X . X X X . X X X . X X X . X X X . X X X . X X X . X X X . X X X . X X X . X X X . X X X . ..       .",
"    .       .       .       .       .       .       .       .       .       .       .       .       .       .       . ..       .",
"...................................................................................................................... .       .",
".       .       .       .       .       .       .       .       .       .       .       .       .       .       .     . ........",
". X X X . X X X . X X X . X X X . X X X . X X X . X X X . X X X . X X X . X X X . X X X . X X X . X X X . X X X . X X ..   .   .",
".       .       .       .       .       .       .       .       .       .       .       .       .       .       .     ..   .   .",
"...................................................................................................................... .   .   .",
"    .       .       .       .       .       .       .       .       .       .       .       .       .       .       . . ........",
"X X . X X X . X X X . X X X . X X X . X X X . X X X . X X X . X X X . X X X . X X X . X X X . X X X . X X X . X X X . ..       .",
"    .       .       .       .       .       .       .       .       .       .       .       .       .       .       . ..       .",
"...................................................................................................................... .       .",
".       .       .       .       .       .       .       .       .       .       .       .       .       .       .     . ........",
". X X X . X X X . X X X . X X X . X X X . X X X . X X X . X X X . X X X . X X X . X X X . X X X . X X X . X X X . X X ..   .   .",
".       .       .       .       .       .       .       .       .       .       .       .       .       .       .     ..   .   .",
"...................................................................................................................... .   .   .",
"    .       .       .       .       .       .       .       .       .       .       .       .       .       .       . . ........",
"X X . X X X . X X X . X X X . X X X . X X X . X X X . X X X . X X X . X X X . X X X . X X X . X X X . X X X . X X X . ..       .",
"    .       .       .       .       .       .       .       .       .       .       .       .       .       .       . ..       .",
"...................................................................................................................... .       .",
".       .       .       .       .       .       .       .       .       .       .       .       .       .       .     . ........",
". X X X . X X X . X X X . X X X . X X X . X X X . X X X . X X X . X X X . X X X . X X X . X X X . X X X . X X X . X X ..   .   .",
".       .       .       .       .       .       .       .       .       .       .       .       .       .       .     ..   .   .",
"...................................................................................................................... .   .   .",
"    .       .       .       .       .       .       .       .       .       .       .       .       .       .       . . ........",
"X X . X X X . X X X . X X X . X X X . X X X . X X X . X X X . X X X . X X X . X X X . X X X . X X X . X X X . X X X . ..       .",
"    .       .       .       .       .       .       .       .       .       .       .       .       .       .       . ..       ."
};
