/* XPM */
static char *bf4b4fc4c0524d3e9ea1b5d6d73e0968laPxf96x9IS1hBfg[] = {
/* columns rows colors chars-per-pixel */
"128 128 4 1 ",
"  c black",
". c #805000",
"X c #FF8000",
"o c #FFFF80",
/* pixels */
"                                                                                                                                ",
" XXXXXXX XXXXXXX XXXXXXX XXXXXXX XXXXXXX XXXXXXX XXXXXXX XXXXXXX XXXXXXX XXXXXXX XXXXXXX XXXXXXX XXXXXXX XXXXXXX XXXXXXX XXXXXXX",
" X.X.X.X X.X.X.X X.X.X.X X.X.X.X X.X.X.X X.X.X.X X.X.X.X X.X.X.X X.X.X.X X.X.X.X X.X.X.X X.X.X.X X.X.X.X X.X.X.X X.X.X.X X.X.X.X",
" XXXXXXX XXXXXXX XXXXXXX XXXXXXX XXXXXXX XXXXXXX XXXXXXX XXXXXXX XXXXXXX XXXXXXX XXXXXXX XXXXXXX XXXXXXX XXXXXXX XXXXXXX XXXXXXX",
"                                                                                                                                ",
"XXXX XXXXXXX XXXXXXX XXXXXXX XXXXXXX XXXXXXX XXXXXXX XXXXXXX XXXXXXX XXXXXXX XXXXXXX XXXXXXX XXXXXXX XXXXXXX XXXXXXX XXXXXXX XXX",
".X.X X.X.X.X X.X.X.X X.X.X.X X.X.X.X X.X.X.X X.X.X.X X.X.X.X X.X.X.X X.X.X.X X.X.X.X X.X.X.X X.X.X.X X.X.X.X X.X.X.X X.X.X.X X.X",
"XXXX XXXXXXX XXXXXXX XXXXXXX XXXXXXX XXXXXXX XXXXXXX XXXXXXX XXXXXXX XXXXXXX XXXXXXX XXXXXXX XXXXXXX XXXXXXX XXXXXXX XXXXXXX XXX",
"                                                                                                                                ",
" XXXXXXX XXXXXXX XXXXXXX XXXXXXX XXXXXXX XXXXXXX XXXXXXX XXXXXXX XXXXXXX XXXXXXX XXXXXXX XXXXXXX XXXXXXX XXXXXXX XXXXXXX XXXXXXX",
" X.X.X.X X.X.X.X X.X.X.X X.X.X.X X.X.X.X X.X.X.X X.X.X.X X.X.X.X X.X.X.X X.X.X.X X.X.X.X X.X.X.X X.X.X.X X.X.X.X X.X.X.X X.X.X.X",
" XXXXXXX XXXXXXX XXXXXXX XXXXXXX XXXXXXX XXXXXXX XXXXXXX XXXXXXX XXXXXXX XXXXXXX XXXXXXX XXXXXXX XXXXXXX XXXXXXX XXXXXXX XXXXXXX",
"                                                                                                                                ",
"XXXX XXXXXXX XXXXXXX XXXXXXX XXXXXXX XXXXXXX XXXXXXX XXXXXXX XXXXXXX XXXXXXX XXXXXXX XXXXXXX XXXXXXX XXXXXXX XXXXXXX XXXXXXX XXX",
".X.X X.X.X.X X.X.X.X X.X.X.X X.X.X.X X.X.X.X X.X.X.X X.X.X.X X.X.X.X X.X.X.X X.X.X.X X.X.X.X X.X.X.X X.X.X.X X.X.X.X X.X.X.X X.X",
"XXXX XXXXXXX XXXXXXX XXXXXXX XXXXXXX XXXXXXX XXXXXXX XXXXXXX XXXXXXX XXXXXXX XXXXXXX XXXXXXX XXXXXXX XXXXXXX XXXXXXX XXXXXXX XXX",
"                                                                                                                                ",
" XXXXXXX XXXXXXX XXXXXXX XXXXXXX XXXXXXX XXXXXXX XXXXXXX XXXXXXX XXXXXXX XXXXXXX XXXXXXX XXXXXXX XXXXXXX XXXXXXX XXXXXXX XXXXXXX",
" X.X.X.X X.X.X.X X.X.X.X X.X.X.X X.X.X.X X.X.X.X X.X.X.X X.X.X.X X.X.X.X X.X.X.X X.X.X.X X.X.X.X X.X.X.X X.X.X.X X.X.X.X X.X.X.X",
" XXXXXXX XXXXXXX XXXXXXX XXXXXXX XXXXXXX XXXXXXX XXXXXXX XXXXXXX XXXXXXX XXXXXXX XXXXXXX XXXXXXX XXXXXXX XXXXXXX XXXXXXX XXXXXXX",
"                                                                                                                                ",
"XXXX XXXXXXX XXXXXXX XXXXXXX XXXXXXX XXXXXXX XXXXXXX XXXXXXX XXXXXXX XXXXXXX XXXXXXX XXXXXXX XXXXXXX XXXXXXX XXXXXXX XXXXXXX XXX",
".X.X X.X.X.X X.X.X.X X.X.X.X X.X.X.X X.X.X.X X.X.X.X X.X.X.X X.X.X.X X.X.X.X X.X.X.X X.X.X.X X.X.X.X X.X.X.X X.X.X.X X.X.X.X X.X",
"XXXX XXXXXXX XXXXXXX XXXXXXX XXXXXXX XXXXXXX XXXXXXX XXXXXXX XXXXXXX XXXXXXX XXXXXXX XXXXXXX XXXXXXX XXXXXXX XXXXXXX XXXXXXX XXX",
"                                                                                                                                ",
" XXXXXXX XXXXXXX XXXXXXX XXXXXXX XXXXXXX XXXXXXX XXXXXXX XXXXXXX XXXXXXX XXXXXXX XXXXXXX XXXXXXX XXXXXXX XXXXXXX XXXXXXX XXXXXXX",
" X.X.X.X X.X.X.X X.X.X.X X.X.X.X X.X.X.X X.X.X.X X.X.X.X X.X.X.X X.X.X.X X.X.X.X X.X.X.X X.X.X.X X.X.X.X X.X.X.X X.X.X.X X.X.X.X",
" XXXXXXX XXXXXXX XXXXXXX XXXXXXX XXXXXXX XXXXXXX XXXXXXX XXXXXXX XXXXXXX XXXXXXX XXXXXXX XXXXXXX XXXXXXX XXXXXXX XXXXXXX XXXXXXX",
"                                                                                                                                ",
"XXXX XXXXXXX XXXXXXX XXXXXXX XXXXXXX XXXXXXX XXXXXXX XXXXXXX XXXXXXX XXXXXXX XXXXXXX XXXXXXX XXXXXXX XXXXXXX XXXXXXX XXXXXXX XXX",
".X.X X.X.X.X X.X.X.X X.X.X.X X.X.X.X X.X.X.X X.X.X.X X.X.X.X X.X.X.X X.X.X.X X.X.X.X X.X.X.X X.X.X.X X.X.X.X X.X.X.X X.X.X.X X.X",
"XXXX XXXXXXX XXXXXXX XXXXXXX XXXXXXX XXXXXXX XXXXXXX XXXXXXX XXXXXXX XXXXXXX XXXXXXX XXXXXXX XXXXXXX XXXXXXX XXXXXXX XXXXXXX XXX",
"                                                                                                                                ",
" XXXXXXX XXXXXXX XXXXXXX XXXXXXX XXXXXXX XXXXXXX XXXXXXX XXXXXXX XXXXXXX XXXXXXX XXXXXXX XXXXXXX XXXXXXX XXXXXXX XXXXXXX XXXXXXX",
" X.X.X.X X.X.X.X X.X.X.X X.X.X.X X.X.X.X X.X.X.X X.X.X.X X.X.X.X X.X.X.X X.X.X.X X.X.X.X X.X.X.X X.X.X.X X.X.X.X X.X.X.X X.X.X.X",
" XXXXXXX XXXXXXX XXXXXXX XXXXXXX XXXXXXX XXXXXXX XXXXXXX XXXXXXX XXXXXXX XXXXXXX XXXXXXX XXXXXXX XXXXXXX XXXXXXX XXXXXXX XXXXXXX",
"                                                                                                                                ",
"XXXX XXXXXXX XXXXXXX XXXXXXX XXXXXXX XXXXXXX XXXXXXX XXXXXXX XXXXXXX XXXXXXX XXXXXXX XXXXXXX XXXXXXX XXXXXXX XXXXXXX XXXXXXX XXX",
".X.X X.X.X.X X.X.X.X X.X.X.X X.X.X.X X.X.X.X X.X.X.X X.X.X.X X.X.X.X X.X.X.X X.X.X.X X.X.X.X X.X.X.X X.X.X.X X.X.X.X X.X.X.X X.X",
"XXXX XXXXXXX XXXXXXX XXXXXXX XXXXXXX XXXXXXX XXXXXXX XXXXXXX XXXXXXX XXXXXXX XXXXXXX XXXXXXX XXXXXXX XXXXXXX XXXXXXX XXXXXXX XXX",
"                                                                                                                                ",
" XXXXXXX XXXXXXX XXXXXXX XXXXXXX XXXXXXX XXXXXXX XXXXXXX XXXXXXX XXXXXXX XXXXXXX XXXXXXX XXXXXXX XXXXXXX XXXXXXX XXXXXXX XXXXXXX",
" X.X.X.X X.X.X.X X.X.X.X X.X.X.X X.X.X.X X.X.X.X X.X.X.X X.X.X.X X.X.X.X X.X.X.X X.X.X.X X.X.X.X X.X.X.X X.X.X.X X.X.X.X X.X.X.X",
" XXXXXXX XXXXXXX XXXXXXX XXXXXXX XXXXXXX XXXXXXX XXXXXXX XXXXXXX XXXXXXX XXXXXXX XXXXXXX XXXXXXX XXXXXXX XXXXXXX XXXXXXX XXXXXXX",
"                                                                                                                                ",
"XXXX XXXXXXX XXXXXXX XXXXXXX XXXXXXX XXXXXXX XXXXXXX XXXXXXX XXXXXXX XXXXXXX XXXXXXX XXXXXXX XXXXXXX XXXXXXX XXXXXXX XXXXXXX XXX",
".X.X X.X.X.X X.X.X.X X.X.X.X X.X.X.X X.X.X.X X.X.X.X X.X.X.X X.X.X.X X.X.X.X X.X.X.X X.X.X.X X.X.X.X X.X.X.X X.X.X.X X.X.X.X X.X",
"XXXX XXXXXXX XXXXXXX XXXXXXX XXXXXXX XXXXXXX XXXXXXX XXXXXXX XXXXXXX XXXXXXX XXXXXXX XXXXXXX XXXXXXX XXXXXXX XXXXXXX XXXXXXX XXX",
"                                                                                                                                ",
" XXXXXXX XXXXXXX XXXXXXX XXXXXXX XXXXXXX XXXXXXX XXXXXXX XXXXXXX XXXXXXX XXXXXXX XXXXXXX XXXXXXX XXXXXXX XXXXXXX XXXXXXX XXXXXXX",
" X.X.X.X X.X.X.X X.X.X.X X.X.X.X X.X.X.X X.X.X.X X.X.X.X X.X.X.X X.X.X.X X.X.X.X X.X.X.X X.X.X.X X.X.X.X X.X.X.X X.X.X.X X.X.X.X",
" XXXXXXX XXXXXXX XXXXXXX XXXXXXX XXXXXXX XXXXXXX XXXXXXX XXXXXXX XXXXXXX XXXXXXX XXXXXXX XXXXXXX XXXXXXX XXXXXXX XXXXXXX XXXXXXX",
"                                                                                                                                ",
"XXXX XXXXXXX XXXXXXX XXXXXXX XXXXXXX XXXXXXX XXXXXXX XXXXXXX XXXXXXX XXXXXXX XXXXXXX XXXXXXX XXXXXXX XXXXXXX XXXXXXX XXXXXXX XXX",
".X.X X.X.X.X X.X.X.X X.X.X.X X.X.X.X X.X.X.X X.X.X.X X.X.X.X X.X.X.X X.X.X.X X.X.X.X X.X.X.X X.X.X.X X.X.X.X X.X.X.X X.X.X.X X.X",
"XXXX XXXXXXX XXXXXXX XXXXXXX XXXXXXX XXXXXXX XXXXXXX XXXXXXX XXXXXXX XXXXXXX XXXXXXX XXXXXXX XXXXXXX XXXXXXX XXXXXXX XXXXXXX XXX",
"                                                                                                                                ",
" XXXXXXX XXXXXXX XXXXXXX XXXXXXX XXXXXXX XXXXXXX XXXXXXX XXXXXXX XXXXXXX XXXXXXX XXXXXXX XXXXXXX XXXXXXX XXXXXXX XXXXXXX XXXXXXX",
" X.X.X.X X.X.X.X X.X.X.X X.X.X.X X.X.X.X X.X.X.X X.X.X.X X.X.X.X X.X.X.X X.X.X.X X.X.X.X X.X.X.X X.X.X.X X.X.X.X X.X.X.X X.X.X.X",
" XXXXXXX XXXXXXX XXXXXXX XXXXXXX XXXXXXX XXXXXXX XXXXXXX XXXXXXX XXXXXXX XXXXXXX XXXXXXX XXXXXXX XXXXXXX XXXXXXX XXXXXXX XXXXXXX",
"                                                                                                                                ",
"XXXX XXXXXXX XXXXXXX XXXXXXX XXXXXXX XXXXXXX XXXXXXX XXXXXXX XXXXXXX XXXXXXX XXXXXXX XXXXXXX XXXXXXX XXXXXXX XXXXXXX XXXXXXX XXX",
".X.X X.X.X.X X.X.X.X X.X.X.X X.X.X.X X.X.X.X X.X.X.X X.X.X.X X.X.X.X X.X.X.X X.X.X.X X.X.X.X X.X.X.X X.X.X.X X.X.X.X X.X.X.X X.X",
"XXXX XXXXXXX XXXXXXX XXXXXXX XXXXXXX XXXXXXX XXXXXXX XXXXXXX XXXXXXX XXXXXXX XXXXXXX XXXXXXX XXXXXXX XXXXXXX XXXXXXX XXXXXXX XXX",
"                                                                                                                                ",
" XXXXXXX XXXXXXX XXXXXXX XXXXXXX XXXXXXX XXXXXXX XXXXXXX XXXXXXX XXXXXXX XXXXXXX XXXXXXX XXXXXXX XXXXXXX XXXXXXX XXXXXXX XXXXXXX",
" X.X.X.X X.X.X.X X.X.X.X X.X.X.X X.X.X.X X.X.X.X X.X.X.X X.X.X.X X.X.X.X X.X.X.X X.X.X.X X.X.X.X X.X.X.X X.X.X.X X.X.X.X X.X.X.X",
" XXXXXXX XXXXXXX XXXXXXX XXXXXXX XXXXXXX XXXXXXX XXXXXXX XXXXXXX XXXXXXX XXXXXXX XXXXXXX XXXXXXX XXXXXXX XXXXXXX XXXXXXX XXXXXXX",
"                                                                                                                                ",
"XXXX XXXXXXX XXXXXXX XXXXXXX XXXXXXX XXXXXXX XXXXXXX XXXXXXX XXXXXXX XXXXXXX XXXXXXX XXXXXXX XXXXXXX XXXXXXX XXXXXXX XXXXXXX XXX",
".X.X X.X.X.X X.X.X.X X.X.X.X X.X.X.X X.X.X.X X.X.X.X X.X.X.X X.X.X.X X.X.X.X X.X.X.X X.X.X.X X.X.X.X X.X.X.X X.X.X.X X.X.X.X X.X",
"XXXX XXXXXXX XXXXXXX XXXXXXX XXXXXXX XXXXXXX XXXXXXX XXXXXXX XXXXXXX XXXXXXX XXXXXXX XXXXXXX XXXXXXX XXXXXXX XXXXXXX XXXXXXX XXX",
"                                                                                                                                ",
" XXXXXXX XXXXXXX XXXXXXX XXXXXXX XXXXXXX XXXXXXX XXXXXXX XXXXXXX XXXXXXX XXXXXXX XXXXXXX XXXXXXX XXXXXXX XXXXXXX XXXXXXX XXXXXXX",
" X.X.X.X X.X.X.X X.X.X.X X.X.X.X X.X.X.X X.X.X.X X.X.X.X X.X.X.X X.X.X.X X.X.X.X X.X.X.X X.X.X.X X.X.X.X X.X.X.X X.X.X.X X.X.X.X",
" XXXXXXX XXXXXXX XXXXXXX XXXXXXX XXXXXXX XXXXXXX XXXXXXX XXXXXXX XXXXXXX XXXXXXX XXXXXXX XXXXXXX XXXXXXX XXXXXXX XXXXXXX XXXXXXX",
"                                                                                                                                ",
"ooooooooooooooooooooooooooooo o ooooooooooooooooooooooooooooooooooooooooooooooooooooooo o o oooooooooooooooooooooooooooooooooooo",
"ooooooooooooooooooooooooooooo o ooooooooooooooooooooooooooooooooooooooooooooooooooooooo o o oooooooooooooooooooooooooooooooooooo",
"ooooooooooooooooooooooooooooo o ooooooooooooooooooooooooooooooooooooooooooooooooooooooo o o oooooooooooooooooooooooooooooooooooo",
"                                                                                                                                ",
" XXXXXXX XXXXXXX XXXXXXX XXXXXXX XXXXXXX XXXXXXX XXXXXXX XXXXXXX XXXXXXX XXXXXXX XXXXXXX XXXXXXX XXXXXXX XXXXXXX XXXXXXX XXXXXXX",
" X.X.X.X X.X.X.X X.X.X.X X.X.X.X X.X.X.X X.X.X.X X.X.X.X X.X.X.X X.X.X.X X.X.X.X X.X.X.X X.X.X.X X.X.X.X X.X.X.X X.X.X.X X.X.X.X",
" XXXXXXX XXXXXXX XXXXXXX XXXXXXX XXXXXXX XXXXXXX XXXXXXX XXXXXXX XXXXXXX XXXXXXX XXXXXXX XXXXXXX XXXXXXX XXXXXXX XXXXXXX XXXXXXX",
"                                                                                                                                ",
"XXXX XXXXXXX XXXXXXX XXXXXXX XXXXXXX XXXXXXX XXXXXXX XXXXXXX XXXXXXX XXXXXXX XXXXXXX XXXXXXX XXXXXXX XXXXXXX XXXXXXX XXXXXXX XXX",
".X.X X.X.X.X X.X.X.X X.X.X.X X.X.X.X X.X.X.X X.X.X.X X.X.X.X X.X.X.X X.X.X.X X.X.X.X X.X.X.X X.X.X.X X.X.X.X X.X.X.X X.X.X.X X.X",
"XXXX XXXXXXX XXXXXXX XXXXXXX XXXXXXX XXXXXXX XXXXXXX XXXXXXX XXXXXXX XXXXXXX XXXXXXX XXXXXXX XXXXXXX XXXXXXX XXXXXXX XXXXXXX XXX",
"                                                                                                                                ",
" XXXXXXX XXXXXXX XXXXXXX XXXXXXX XXXXXXX XXXXXXX XXXXXXX XXXXXXX XXXXXXX XXXXXXX XXXXXXX XXXXXXX XXXXXXX XXXXXXX XXXXXXX XXXXXXX",
" X.X.X.X X.X.X.X X.X.X.X X.X.X.X X.X.X.X X.X.X.X X.X.X.X X.X.X.X X.X.X.X X.X.X.X X.X.X.X X.X.X.X X.X.X.X X.X.X.X X.X.X.X X.X.X.X",
" XXXXXXX XXXXXXX XXXXXXX XXXXXXX XXXXXXX XXXXXXX XXXXXXX XXXXXXX XXXXXXX XXXXXXX XXXXXXX XXXXXXX XXXXXXX XXXXXXX XXXXXXX XXXXXXX",
"                                                                                                                                ",
"XXXX XXXXXXX XXXXXXX XXXXXXX XXXXXXX XXXXXXX XXXXXXX XXXXXXX XXXXXXX XXXXXXX XXXXXXX XXXXXXX XXXXXXX XXXXXXX XXXXXXX XXXXXXX XXX",
".X.X X.X.X.X X.X.X.X X.X.X.X X.X.X.X X.X.X.X X.X.X.X X.X.X.X X.X.X.X X.X.X.X X.X.X.X X.X.X.X X.X.X.X X.X.X.X X.X.X.X X.X.X.X X.X",
"XXXX XXXXXXX XXXXXXX XXXXXXX XXXXXXX XXXXXXX XXXXXXX XXXXXXX XXXXXXX XXXXXXX XXXXXXX XXXXXXX XXXXXXX XXXXXXX XXXXXXX XXXXXXX XXX",
"                                                                                                                                ",
" XXXXXXX XXXXXXX XXXXXXX XXXXXXX XXXXXXX XXXXXXX XXXXXXX XXXXXXX XXXXXXX XXXXXXX XXXXXXX XXXXXXX XXXXXXX XXXXXXX XXXXXXX XXXXXXX",
" X.X.X.X X.X.X.X X.X.X.X X.X.X.X X.X.X.X X.X.X.X X.X.X.X X.X.X.X X.X.X.X X.X.X.X X.X.X.X X.X.X.X X.X.X.X X.X.X.X X.X.X.X X.X.X.X",
" XXXXXXX XXXXXXX XXXXXXX XXXXXXX XXXXXXX XXXXXXX XXXXXXX XXXXXXX XXXXXXX XXXXXXX XXXXXXX XXXXXXX XXXXXXX XXXXXXX XXXXXXX XXXXXXX",
"                                                                                                                                ",
"XXXX XXXXXXX XXXXXXX XXXXXXX XXXXXXX XXXXXXX XXXXXXX XXXXXXX XXXXXXX XXXXXXX XXXXXXX XXXXXXX XXXXXXX XXXXXXX XXXXXXX XXXXXXX XXX",
".X.X X.X.X.X X.X.X.X X.X.X.X X.X.X.X X.X.X.X X.X.X.X X.X.X.X X.X.X.X X.X.X.X X.X.X.X X.X.X.X X.X.X.X X.X.X.X X.X.X.X X.X.X.X X.X",
"XXXX XXXXXXX XXXXXXX XXXXXXX XXXXXXX XXXXXXX XXXXXXX XXXXXXX XXXXXXX XXXXXXX XXXXXXX XXXXXXX XXXXXXX XXXXXXX XXXXXXX XXXXXXX XXX",
"                                                                                                                                ",
" XXXXXXX XXXXXXX XXXXXXX XXXXXXX XXXXXXX XXXXXXX XXXXXXX XXXXXXX XXXXXXX XXXXXXX XXXXXXX XXXXXXX XXXXXXX XXXXXXX XXXXXXX XXXXXXX",
" X.X.X.X X.X.X.X X.X.X.X X.X.X.X X.X.X.X X.X.X.X X.X.X.X X.X.X.X X.X.X.X X.X.X.X X.X.X.X X.X.X.X X.X.X.X X.X.X.X X.X.X.X X.X.X.X",
" XXXXXXX XXXXXXX XXXXXXX XXXXXXX XXXXXXX XXXXXXX XXXXXXX XXXXXXX XXXXXXX XXXXXXX XXXXXXX XXXXXXX XXXXXXX XXXXXXX XXXXXXX XXXXXXX",
"                                                                                                                                ",
"XXXX XXXXXXX XXXXXXX XXXXXXX XXXXXXX XXXXXXX XXXXXXX XXXXXXX XXXXXXX XXXXXXX XXXXXXX XXXXXXX XXXXXXX XXXXXXX XXXXXXX XXXXXXX XXX",
".X.X X.X.X.X X.X.X.X X.X.X.X X.X.X.X X.X.X.X X.X.X.X X.X.X.X X.X.X.X X.X.X.X X.X.X.X X.X.X.X X.X.X.X X.X.X.X X.X.X.X X.X.X.X X.X",
"XXXX XXXXXXX XXXXXXX XXXXXXX XXXXXXX XXXXXXX XXXXXXX XXXXXXX XXXXXXX XXXXXXX XXXXXXX XXXXXXX XXXXXXX XXXXXXX XXXXXXX XXXXXXX XXX",
"                                                                                                                                ",
" XXXXXXX XXXXXXX XXXXXXX XXXXXXX XXXXXXX XXXXXXX XXXXXXX XXXXXXX XXXXXXX XXXXXXX XXXXXXX XXXXXXX XXXXXXX XXXXXXX XXXXXXX XXXXXXX",
" X.X.X.X X.X.X.X X.X.X.X X.X.X.X X.X.X.X X.X.X.X X.X.X.X X.X.X.X X.X.X.X X.X.X.X X.X.X.X X.X.X.X X.X.X.X X.X.X.X X.X.X.X X.X.X.X",
" XXXXXXX XXXXXXX XXXXXXX XXXXXXX XXXXXXX XXXXXXX XXXXXXX XXXXXXX XXXXXXX XXXXXXX XXXXXXX XXXXXXX XXXXXXX XXXXXXX XXXXXXX XXXXXXX",
"                                                                                                                                ",
"XXXX XXXXXXX XXXXXXX XXXXXXX XXXXXXX XXXXXXX XXXXXXX XXXXXXX XXXXXXX XXXXXXX XXXXXXX XXXXXXX XXXXXXX XXXXXXX XXXXXXX XXXXXXX XXX",
".X.X X.X.X.X X.X.X.X X.X.X.X X.X.X.X X.X.X.X X.X.X.X X.X.X.X X.X.X.X X.X.X.X X.X.X.X X.X.X.X X.X.X.X X.X.X.X X.X.X.X X.X.X.X X.X",
"XXXX XXXXXXX XXXXXXX XXXXXXX XXXXXXX XXXXXXX XXXXXXX XXXXXXX XXXXXXX XXXXXXX XXXXXXX XXXXXXX XXXXXXX XXXXXXX XXXXXXX XXXXXXX XXX",
"                                                                                                                                ",
" XXXXXXX XXXXXXX XXXXXXX XXXXXXX XXXXXXX XXXXXXX XXXXXXX XXXXXXX XXXXXXX XXXXXXX XXXXXXX XXXXXXX XXXXXXX XXXXXXX XXXXXXX XXXXXXX",
" X.X.X.X X.X.X.X X.X.X.X X.X.X.X X.X.X.X X.X.X.X X.X.X.X X.X.X.X X.X.X.X X.X.X.X X.X.X.X X.X.X.X X.X.X.X X.X.X.X X.X.X.X X.X.X.X",
" XXXXXXX XXXXXXX XXXXXXX XXXXXXX XXXXXXX XXXXXXX XXXXXXX XXXXXXX XXXXXXX XXXXXXX XXXXXXX XXXXXXX XXXXXXX XXXXXXX XXXXXXX XXXXXXX",
"                                                                                                                                ",
"XXXX XXXXXXX XXXXXXX XXXXXXX XXXXXXX XXXXXXX XXXXXXX XXXXXXX XXXXXXX XXXXXXX XXXXXXX XXXXXXX XXXXXXX XXXXXXX XXXXXXX XXXXXXX XXX",
".X.X X.X.X.X X.X.X.X X.X.X.X X.X.X.X X.X.X.X X.X.X.X X.X.X.X X.X.X.X X.X.X.X X.X.X.X X.X.X.X X.X.X.X X.X.X.X X.X.X.X X.X.X.X X.X",
"XXXX XXXXXXX XXXXXXX XXXXXXX XXXXXXX XXXXXXX XXXXXXX XXXXXXX XXXXXXX XXXXXXX XXXXXXX XXXXXXX XXXXXXX XXXXXXX XXXXXXX XXXXXXX XXX"
};
