/* XPM */
static char *_c5a906cf9054ca38d4672654557712bSbuQJiSiF6s9iSTE[] = {
/* columns rows colors chars-per-pixel */
"128 128 3 1 ",
"  c black",
". c #805000",
"X c #FF8000",
/* pixels */
"                                                                                                                                ",
" XXXXXXXXXXXXXXX XXXX.XXXXXXXXXX XXXXXXXXXX.XXXX XXXXXXXXXXXXXXX XXXXXXXXXXXXXXX XXXX.XXXXXXXXXX XXXXXXXXXX.XXXX XXXXXXXXXXXXXXX",
" X.X.X.X.X.X.X.X XX.XX.XX.XXX.XX XX.XXX.XX.XX.XX X.X.X.X.X.X.X.X X.X.X.X.X.X.X.X XX.XX.XX.XXX.XX XX.XXX.XX.XX.XX X.X.X.X.X.X.X.X",
" XXXXXXXXXXXXXXX XXXXXXXXXX.XXXX XXXX.XXXXXXXXXX XXXXXXXXXXXXXXX XXXXXXXXXXXXXXX XXXXXXXXXX.XXXX XXXX.XXXXXXXXXX XXXXXXXXXXXXXXX",
" X.XX.X.X.XX.X.X X.XX.X.X.XX.X.X X.X.XX.X.X.XX.X X.X.XX.X.X.XX.X X.XX.X.X.XX.X.X X.XX.X.X.XX.X.X X.X.XX.X.X.XX.X X.X.XX.X.X.XX.X",
" XXXXXXXXXX.XXXX XXXXXXXXXXXXXXX XXXXXXXXXXXXXXX XXXX.XXXXXXXXXX XXXXXXXXXX.XXXX XXXXXXXXXXXXXXX XXXXXXXXXXXXXXX XXXX.XXXXXXXXXX",
" XX.XX.XX.XXX.XX X.X.X.X.X.X.X.X X.X.X.X.X.X.X.X XX.XXX.XX.XX.XX XX.XX.XX.XXX.XX X.X.X.X.X.X.X.X X.X.X.X.X.X.X.X XX.XXX.XX.XX.XX",
" XXXX.XXXXXXXXXX XXXXXXXXXXXXXXX XXXXXXXXXXXXXXX XXXXXXXXXX.XXXX XXXX.XXXXXXXXXX XXXXXXXXXXXXXXX XXXXXXXXXXXXXXX XXXXXXXXXX.XXXX",
"                                                                                                                                ",
"XXXXXXXX XXXX.XXXXXXXXXX XXXXXXXXXX.XXXX XXXXXXXXXXXXXXX XXXXXXXXXXXXXXX XXXX.XXXXXXXXXX XXXXXXXXXX.XXXX XXXXXXXXXXXXXXX XXXXXXX",
".X.X.X.X XX.XX.XX.XXX.XX XX.XXX.XX.XX.XX X.X.X.X.X.X.X.X X.X.X.X.X.X.X.X XX.XX.XX.XXX.XX XX.XXX.XX.XX.XX X.X.X.X.X.X.X.X X.X.X.X",
"XXXXXXXX XXXXXXXXXX.XXXX XXXX.XXXXXXXXXX XXXXXXXXXXXXXXX XXXXXXXXXXXXXXX XXXXXXXXXX.XXXX XXXX.XXXXXXXXXX XXXXXXXXXXXXXXX XXXXXXX",
"X.XX.X.X X.XX.X.X.XX.X.X X.X.XX.X.X.XX.X X.X.XX.X.X.XX.X X.XX.X.X.XX.X.X X.XX.X.X.XX.X.X X.X.XX.X.X.XX.X X.X.XX.X.X.XX.X X.XX.X.",
"XXX.XXXX XXXXXXXXXXXXXXX XXXXXXXXXXXXXXX XXXX.XXXXXXXXXX XXXXXXXXXX.XXXX XXXXXXXXXXXXXXX XXXXXXXXXXXXXXX XXXX.XXXXXXXXXX XXXXXXX",
"X.XXX.XX X.X.X.X.X.X.X.X X.X.X.X.X.X.X.X XX.XXX.XX.XX.XX XX.XX.XX.XXX.XX X.X.X.X.X.X.X.X X.X.X.X.X.X.X.X XX.XXX.XX.XX.XX XX.XX.X",
"XXXXXXXX XXXXXXXXXXXXXXX XXXXXXXXXXXXXXX XXXXXXXXXX.XXXX XXXX.XXXXXXXXXX XXXXXXXXXXXXXXX XXXXXXXXXXXXXXX XXXXXXXXXX.XXXX XXXX.XX",
"                                                                                                                                ",
" XXXXXXXXXXXXXXX XXXX.XXXXXXXXXX XXXXXXXXXX.XXXX XXXXXXXXXXXXXXX XXXXXXXXXXXXXXX XXXX.XXXXXXXXXX XXXXXXXXXX.XXXX XXXXXXXXXXXXXXX",
" X.X.X.X.X.X.X.X XX.XX.XX.XXX.XX XX.XXX.XX.XX.XX X.X.X.X.X.X.X.X X.X.X.X.X.X.X.X XX.XX.XX.XXX.XX XX.XXX.XX.XX.XX X.X.X.X.X.X.X.X",
" XXXXXXXXXXXXXXX XXXXXXXXXX.XXXX XXXX.XXXXXXXXXX XXXXXXXXXXXXXXX XXXXXXXXXXXXXXX XXXXXXXXXX.XXXX XXXX.XXXXXXXXXX XXXXXXXXXXXXXXX",
" X.XX.X.X.XX.X.X X.XX.X.X.XX.X.X X.X.XX.X.X.XX.X X.X.XX.X.X.XX.X X.XX.X.X.XX.X.X X.XX.X.X.XX.X.X X.X.XX.X.X.XX.X X.X.XX.X.X.XX.X",
" XXXXXXXXXX.XXXX XXXXXXXXXXXXXXX XXXXXXXXXXXXXXX XXXX.XXXXXXXXXX XXXXXXXXXX.XXXX XXXXXXXXXXXXXXX XXXXXXXXXXXXXXX XXXX.XXXXXXXXXX",
" XX.XX.XX.XXX.XX X.X.X.X.X.X.X.X X.X.X.X.X.X.X.X XX.XXX.XX.XX.XX XX.XX.XX.XXX.XX X.X.X.X.X.X.X.X X.X.X.X.X.X.X.X XX.XXX.XX.XX.XX",
" XXXX.XXXXXXXXXX XXXXXXXXXXXXXXX XXXXXXXXXXXXXXX XXXXXXXXXX.XXXX XXXX.XXXXXXXXXX XXXXXXXXXXXXXXX XXXXXXXXXXXXXXX XXXXXXXXXX.XXXX",
"                                                                                                                                ",
"XXXXXXXX XXXX.XXXXXXXXXX XXXXXXXXXX.XXXX XXXXXXXXXXXXXXX XXXXXXXXXXXXXXX XXXX.XXXXXXXXXX XXXXXXXXXX.XXXX XXXXXXXXXXXXXXX XXXXXXX",
".X.X.X.X XX.XX.XX.XXX.XX XX.XXX.XX.XX.XX X.X.X.X.X.X.X.X X.X.X.X.X.X.X.X XX.XX.XX.XXX.XX XX.XXX.XX.XX.XX X.X.X.X.X.X.X.X X.X.X.X",
"XXXXXXXX XXXXXXXXXX.XXXX XXXX.XXXXXXXXXX XXXXXXXXXXXXXXX XXXXXXXXXXXXXXX XXXXXXXXXX.XXXX XXXX.XXXXXXXXXX XXXXXXXXXXXXXXX XXXXXXX",
"X.XX.X.X X.XX.X.X.XX.X.X X.X.XX.X.X.XX.X X.X.XX.X.X.XX.X X.XX.X.X.XX.X.X X.XX.X.X.XX.X.X X.X.XX.X.X.XX.X X.X.XX.X.X.XX.X X.XX.X.",
"XXX.XXXX XXXXXXXXXXXXXXX XXXXXXXXXXXXXXX XXXX.XXXXXXXXXX XXXXXXXXXX.XXXX XXXXXXXXXXXXXXX XXXXXXXXXXXXXXX XXXX.XXXXXXXXXX XXXXXXX",
"X.XXX.XX X.X.X.X.X.X.X.X X.X.X.X.X.X.X.X XX.XXX.XX.XX.XX XX.XX.XX.XXX.XX X.X.X.X.X.X.X.X X.X.X.X.X.X.X.X XX.XXX.XX.XX.XX XX.XX.X",
"XXXXXXXX XXXXXXXXXXXXXXX XXXXXXXXXXXXXXX XXXXXXXXXX.XXXX XXXX.XXXXXXXXXX XXXXXXXXXXXXXXX XXXXXXXXXXXXXXX XXXXXXXXXX.XXXX XXXX.XX",
"                                                                                                                                ",
" XXXXXXXXXXXXXXX XXXX.XXXXXXXXXX XXXXXXXXXX.XXXX XXXXXXXXXXXXXXX XXXXXXXXXXXXXXX XXXX.XXXXXXXXXX XXXXXXXXXX.XXXX XXXXXXXXXXXXXXX",
" X.X.X.X.X.X.X.X XX.XX.XX.XXX.XX XX.XXX.XX.XX.XX X.X.X.X.X.X.X.X X.X.X.X.X.X.X.X XX.XX.XX.XXX.XX XX.XXX.XX.XX.XX X.X.X.X.X.X.X.X",
" XXXXXXXXXXXXXXX XXXXXXXXXX.XXXX XXXX.XXXXXXXXXX XXXXXXXXXXXXXXX XXXXXXXXXXXXXXX XXXXXXXXXX.XXXX XXXX.XXXXXXXXXX XXXXXXXXXXXXXXX",
" X.XX.X.X.XX.X.X X.XX.X.X.XX.X.X X.X.XX.X.X.XX.X X.X.XX.X.X.XX.X X.XX.X.X.XX.X.X X.XX.X.X.XX.X.X X.X.XX.X.X.XX.X X.X.XX.X.X.XX.X",
" XXXXXXXXXX.XXXX XXXXXXXXXXXXXXX XXXXXXXXXXXXXXX XXXX.XXXXXXXXXX XXXXXXXXXX.XXXX XXXXXXXXXXXXXXX XXXXXXXXXXXXXXX XXXX.XXXXXXXXXX",
" XX.XX.XX.XXX.XX X.X.X.X.X.X.X.X X.X.X.X.X.X.X.X XX.XXX.XX.XX.XX XX.XX.XX.XXX.XX X.X.X.X.X.X.X.X X.X.X.X.X.X.X.X XX.XXX.XX.XX.XX",
" XXXX.XXXXXXXXXX XXXXXXXXXXXXXXX XXXXXXXXXXXXXXX XXXXXXXXXX.XXXX XXXX.XXXXXXXXXX XXXXXXXXXXXXXXX XXXXXXXXXXXXXXX XXXXXXXXXX.XXXX",
"                                                                                                                                ",
"XXXXXXXX XXXX.XXXXXXXXXX XXXXXXXXXX.XXXX XXXXXXXXXXXXXXX XXXXXXXXXXXXXXX XXXX.XXXXXXXXXX XXXXXXXXXX.XXXX XXXXXXXXXXXXXXX XXXXXXX",
".X.X.X.X XX.XX.XX.XXX.XX XX.XXX.XX.XX.XX X.X.X.X.X.X.X.X X.X.X.X.X.X.X.X XX.XX.XX.XXX.XX XX.XXX.XX.XX.XX X.X.X.X.X.X.X.X X.X.X.X",
"XXXXXXXX XXXXXXXXXX.XXXX XXXX.XXXXXXXXXX XXXXXXXXXXXXXXX XXXXXXXXXXXXXXX XXXXXXXXXX.XXXX XXXX.XXXXXXXXXX XXXXXXXXXXXXXXX XXXXXXX",
"X.XX.X.X X.XX.X.X.XX.X.X X.X.XX.X.X.XX.X X.X.XX.X.X.XX.X X.XX.X.X.XX.X.X X.XX.X.X.XX.X.X X.X.XX.X.X.XX.X X.X.XX.X.X.XX.X X.XX.X.",
"XXX.XXXX XXXXXXXXXXXXXXX XXXXXXXXXXXXXXX XXXX.XXXXXXXXXX XXXXXXXXXX.XXXX XXXXXXXXXXXXXXX XXXXXXXXXXXXXXX XXXX.XXXXXXXXXX XXXXXXX",
"X.XXX.XX X.X.X.X.X.X.X.X X.X.X.X.X.X.X.X XX.XXX.XX.XX.XX XX.XX.XX.XXX.XX X.X.X.X.X.X.X.X X.X.X.X.X.X.X.X XX.XXX.XX.XX.XX XX.XX.X",
"XXXXXXXX XXXXXXXXXXXXXXX XXXXXXXXXXXXXXX XXXXXXXXXX.XXXX XXXX.XXXXXXXXXX XXXXXXXXXXXXXXX XXXXXXXXXXXXXXX XXXXXXXXXX.XXXX XXXX.XX",
"                                                                                                                                ",
" XXXXXXXXXXXXXXX XXXX.XXXXXXXXXX XXXXXXXXXX.XXXX XXXXXXXXXXXXXXX XXXXXXXXXXXXXXX XXXX.XXXXXXXXXX XXXXXXXXXX.XXXX XXXXXXXXXXXXXXX",
" X.X.X.X.X.X.X.X XX.XX.XX.XXX.XX XX.XXX.XX.XX.XX X.X.X.X.X.X.X.X X.X.X.X.X.X.X.X XX.XX.XX.XXX.XX XX.XXX.XX.XX.XX X.X.X.X.X.X.X.X",
" XXXXXXXXXXXXXXX XXXXXXXXXX.XXXX XXXX.XXXXXXXXXX XXXXXXXXXXXXXXX XXXXXXXXXXXXXXX XXXXXXXXXX.XXXX XXXX.XXXXXXXXXX XXXXXXXXXXXXXXX",
" X.XX.X.X.XX.X.X X.XX.X.X.XX.X.X X.X.XX.X.X.XX.X X.X.XX.X.X.XX.X X.XX.X.X.XX.X.X X.XX.X.X.XX.X.X X.X.XX.X.X.XX.X X.X.XX.X.X.XX.X",
" XXXXXXXXXX.XXXX XXXXXXXXXXXXXXX XXXXXXXXXXXXXXX XXXX.XXXXXXXXXX XXXXXXXXXX.XXXX XXXXXXXXXXXXXXX XXXXXXXXXXXXXXX XXXX.XXXXXXXXXX",
" XX.XX.XX.XXX.XX X.X.X.X.X.X.X.X X.X.X.X.X.X.X.X XX.XXX.XX.XX.XX XX.XX.XX.XXX.XX X.X.X.X.X.X.X.X X.X.X.X.X.X.X.X XX.XXX.XX.XX.XX",
" XXXX.XXXXXXXXXX XXXXXXXXXXXXXXX XXXXXXXXXXXXXXX XXXXXXXXXX.XXXX XXXX.XXXXXXXXXX XXXXXXXXXXXXXXX XXXXXXXXXXXXXXX XXXXXXXXXX.XXXX",
"                                                                                                                                ",
"XXXXXXXX XXXX.XXXXXXXXXX XXXXXXXXXX.XXXX XXXXXXXXXXXXXXX XXXXXXXXXXXXXXX XXXX.XXXXXXXXXX XXXXXXXXXX.XXXX XXXXXXXXXXXXXXX XXXXXXX",
".X.X.X.X XX.XX.XX.XXX.XX XX.XXX.XX.XX.XX X.X.X.X.X.X.X.X X.X.X.X.X.X.X.X XX.XX.XX.XXX.XX XX.XXX.XX.XX.XX X.X.X.X.X.X.X.X X.X.X.X",
"XXXXXXXX XXXXXXXXXX.XXXX XXXX.XXXXXXXXXX XXXXXXXXXXXXXXX XXXXXXXXXXXXXXX XXXXXXXXXX.XXXX XXXX.XXXXXXXXXX XXXXXXXXXXXXXXX XXXXXXX",
"X.XX.X.X X.XX.X.X.XX.X.X X.X.XX.X.X.XX.X X.X.XX.X.X.XX.X X.XX.X.X.XX.X.X X.XX.X.X.XX.X.X X.X.XX.X.X.XX.X X.X.XX.X.X.XX.X X.XX.X.",
"XXX.XXXX XXXXXXXXXXXXXXX XXXXXXXXXXXXXXX XXXX.XXXXXXXXXX XXXXXXXXXX.XXXX XXXXXXXXXXXXXXX XXXXXXXXXXXXXXX XXXX.XXXXXXXXXX XXXXXXX",
"X.XXX.XX X.X.X.X.X.X.X.X X.X.X.X.X.X.X.X XX.XXX.XX.XX.XX XX.XX.XX.XXX.XX X.X.X.X.X.X.X.X X.X.X.X.X.X.X.X XX.XXX.XX.XX.XX XX.XX.X",
"XXXXXXXX XXXXXXXXXXXXXXX XXXXXXXXXXXXXXX XXXXXXXXXX.XXXX XXXX.XXXXXXXXXX XXXXXXXXXXXXXXX XXXXXXXXXXXXXXX XXXXXXXXXX.XXXX XXXX.XX",
"                                                                                                                                ",
" XXXXXXXXXXXXXXX XXXX.XXXXXXXXXX XXXXXXXXXX.XXXX XXXXXXXXXXXXXXX XXXXXXXXXXXXXXX XXXX.XXXXXXXXXX XXXXXXXXXX.XXXX XXXXXXXXXXXXXXX",
" X.X.X.X.X.X.X.X XX.XX.XX.XXX.XX XX.XXX.XX.XX.XX X.X.X.X.X.X.X.X X.X.X.X.X.X.X.X XX.XX.XX.XXX.XX XX.XXX.XX.XX.XX X.X.X.X.X.X.X.X",
" XXXXXXXXXXXXXXX XXXXXXXXXX.XXXX XXXX.XXXXXXXXXX XXXXXXXXXXXXXXX XXXXXXXXXXXXXXX XXXXXXXXXX.XXXX XXXX.XXXXXXXXXX XXXXXXXXXXXXXXX",
" X.XX.X.X.XX.X.X X.XX.X.X.XX.X.X X.X.XX.X.X.XX.X X.X.XX.X.X.XX.X X.XX.X.X.XX.X.X X.XX.X.X.XX.X.X X.X.XX.X.X.XX.X X.X.XX.X.X.XX.X",
" XXXXXXXXXX.XXXX XXXXXXXXXXXXXXX XXXXXXXXXXXXXXX XXXX.XXXXXXXXXX XXXXXXXXXX.XXXX XXXXXXXXXXXXXXX XXXXXXXXXXXXXXX XXXX.XXXXXXXXXX",
" XX.XX.XX.XXX.XX X.X.X.X.X.X.X.X X.X.X.X.X.X.X.X XX.XXX.XX.XX.XX XX.XX.XX.XXX.XX X.X.X.X.X.X.X.X X.X.X.X.X.X.X.X XX.XXX.XX.XX.XX",
" XXXX.XXXXXXXXXX XXXXXXXXXXXXXXX XXXXXXXXXXXXXXX XXXXXXXXXX.XXXX XXXX.XXXXXXXXXX XXXXXXXXXXXXXXX XXXXXXXXXXXXXXX XXXXXXXXXX.XXXX",
"                                                                                                                                ",
"XXXXXXXX XXXX.XXXXXXXXXX XXXXXXXXXX.XXXX XXXXXXXXXXXXXXX XXXXXXXXXXXXXXX XXXX.XXXXXXXXXX XXXXXXXXXX.XXXX XXXXXXXXXXXXXXX XXXXXXX",
".X.X.X.X XX.XX.XX.XXX.XX XX.XXX.XX.XX.XX X.X.X.X.X.X.X.X X.X.X.X.X.X.X.X XX.XX.XX.XXX.XX XX.XXX.XX.XX.XX X.X.X.X.X.X.X.X X.X.X.X",
"XXXXXXXX XXXXXXXXXX.XXXX XXXX.XXXXXXXXXX XXXXXXXXXXXXXXX XXXXXXXXXXXXXXX XXXXXXXXXX.XXXX XXXX.XXXXXXXXXX XXXXXXXXXXXXXXX XXXXXXX",
"X.XX.X.X X.XX.X.X.XX.X.X X.X.XX.X.X.XX.X X.X.XX.X.X.XX.X X.XX.X.X.XX.X.X X.XX.X.X.XX.X.X X.X.XX.X.X.XX.X X.X.XX.X.X.XX.X X.XX.X.",
"XXX.XXXX XXXXXXXXXXXXXXX XXXXXXXXXXXXXXX XXXX.XXXXXXXXXX XXXXXXXXXX.XXXX XXXXXXXXXXXXXXX XXXXXXXXXXXXXXX XXXX.XXXXXXXXXX XXXXXXX",
"X.XXX.XX X.X.X.X.X.X.X.X X.X.X.X.X.X.X.X XX.XXX.XX.XX.XX XX.XX.XX.XXX.XX X.X.X.X.X.X.X.X X.X.X.X.X.X.X.X XX.XXX.XX.XX.XX XX.XX.X",
"XXXXXXXX XXXXXXXXXXXXXXX XXXXXXXXXXXXXXX XXXXXXXXXX.XXXX XXXX.XXXXXXXXXX XXXXXXXXXXXXXXX XXXXXXXXXXXXXXX XXXXXXXXXX.XXXX XXXX.XX",
"                                                                                                                                ",
" XXXXXXXXXXXXXXX XXXX.XXXXXXXXXX XXXXXXXXXX.XXXX XXXXXXXXXXXXXXX XXXXXXXXXXXXXXX XXXX.XXXXXXXXXX XXXXXXXXXX.XXXX XXXXXXXXXXXXXXX",
" X.X.X.X.X.X.X.X XX.XX.XX.XXX.XX XX.XXX.XX.XX.XX X.X.X.X.X.X.X.X X.X.X.X.X.X.X.X XX.XX.XX.XXX.XX XX.XXX.XX.XX.XX X.X.X.X.X.X.X.X",
" XXXXXXXXXXXXXXX XXXXXXXXXX.XXXX XXXX.XXXXXXXXXX XXXXXXXXXXXXXXX XXXXXXXXXXXXXXX XXXXXXXXXX.XXXX XXXX.XXXXXXXXXX XXXXXXXXXXXXXXX",
" X.XX.X.X.XX.X.X X.XX.X.X.XX.X.X X.X.XX.X.X.XX.X X.X.XX.X.X.XX.X X.XX.X.X.XX.X.X X.XX.X.X.XX.X.X X.X.XX.X.X.XX.X X.X.XX.X.X.XX.X",
" XXXXXXXXXX.XXXX XXXXXXXXXXXXXXX XXXXXXXXXXXXXXX XXXX.XXXXXXXXXX XXXXXXXXXX.XXXX XXXXXXXXXXXXXXX XXXXXXXXXXXXXXX XXXX.XXXXXXXXXX",
" XX.XX.XX.XXX.XX X.X.X.X.X.X.X.X X.X.X.X.X.X.X.X XX.XXX.XX.XX.XX XX.XX.XX.XXX.XX X.X.X.X.X.X.X.X X.X.X.X.X.X.X.X XX.XXX.XX.XX.XX",
" XXXX.XXXXXXXXXX XXXXXXXXXXXXXXX XXXXXXXXXXXXXXX XXXXXXXXXX.XXXX XXXX.XXXXXXXXXX XXXXXXXXXXXXXXX XXXXXXXXXXXXXXX XXXXXXXXXX.XXXX",
"                                                                                                                                ",
"XXXXXXXX XXXX.XXXXXXXXXX XXXXXXXXXX.XXXX XXXXXXXXXXXXXXX XXXXXXXXXXXXXXX XXXX.XXXXXXXXXX XXXXXXXXXX.XXXX XXXXXXXXXXXXXXX XXXXXXX",
".X.X.X.X XX.XX.XX.XXX.XX XX.XXX.XX.XX.XX X.X.X.X.X.X.X.X X.X.X.X.X.X.X.X XX.XX.XX.XXX.XX XX.XXX.XX.XX.XX X.X.X.X.X.X.X.X X.X.X.X",
"XXXXXXXX XXXXXXXXXX.XXXX XXXX.XXXXXXXXXX XXXXXXXXXXXXXXX XXXXXXXXXXXXXXX XXXXXXXXXX.XXXX XXXX.XXXXXXXXXX XXXXXXXXXXXXXXX XXXXXXX",
"X.XX.X.X X.XX.X.X.XX.X.X X.X.XX.X.X.XX.X X.X.XX.X.X.XX.X X.XX.X.X.XX.X.X X.XX.X.X.XX.X.X X.X.XX.X.X.XX.X X.X.XX.X.X.XX.X X.XX.X.",
"XXX.XXXX XXXXXXXXXXXXXXX XXXXXXXXXXXXXXX XXXX.XXXXXXXXXX XXXXXXXXXX.XXXX XXXXXXXXXXXXXXX XXXXXXXXXXXXXXX XXXX.XXXXXXXXXX XXXXXXX",
"X.XXX.XX X.X.X.X.X.X.X.X X.X.X.X.X.X.X.X XX.XXX.XX.XX.XX XX.XX.XX.XXX.XX X.X.X.X.X.X.X.X X.X.X.X.X.X.X.X XX.XXX.XX.XX.XX XX.XX.X",
"XXXXXXXX XXXXXXXXXXXXXXX XXXXXXXXXXXXXXX XXXXXXXXXX.XXXX XXXX.XXXXXXXXXX XXXXXXXXXXXXXXX XXXXXXXXXXXXXXX XXXXXXXXXX.XXXX XXXX.XX",
"                                                                                                                                ",
" XXXXXXXXXXXXXXX XXXX.XXXXXXXXXX XXXXXXXXXX.XXXX XXXXXXXXXXXXXXX XXXXXXXXXXXXXXX XXXX.XXXXXXXXXX XXXXXXXXXX.XXXX XXXXXXXXXXXXXXX",
" X.X.X.X.X.X.X.X XX.XX.XX.XXX.XX XX.XXX.XX.XX.XX X.X.X.X.X.X.X.X X.X.X.X.X.X.X.X XX.XX.XX.XXX.XX XX.XXX.XX.XX.XX X.X.X.X.X.X.X.X",
" XXXXXXXXXXXXXXX XXXXXXXXXX.XXXX XXXX.XXXXXXXXXX XXXXXXXXXXXXXXX XXXXXXXXXXXXXXX XXXXXXXXXX.XXXX XXXX.XXXXXXXXXX XXXXXXXXXXXXXXX",
" X.XX.X.X.XX.X.X X.XX.X.X.XX.X.X X.X.XX.X.X.XX.X X.X.XX.X.X.XX.X X.XX.X.X.XX.X.X X.XX.X.X.XX.X.X X.X.XX.X.X.XX.X X.X.XX.X.X.XX.X",
" XXXXXXXXXX.XXXX XXXXXXXXXXXXXXX XXXXXXXXXXXXXXX XXXX.XXXXXXXXXX XXXXXXXXXX.XXXX XXXXXXXXXXXXXXX XXXXXXXXXXXXXXX XXXX.XXXXXXXXXX",
" XX.XX.XX.XXX.XX X.X.X.X.X.X.X.X X.X.X.X.X.X.X.X XX.XXX.XX.XX.XX XX.XX.XX.XXX.XX X.X.X.X.X.X.X.X X.X.X.X.X.X.X.X XX.XXX.XX.XX.XX",
" XXXX.XXXXXXXXXX XXXXXXXXXXXXXXX XXXXXXXXXXXXXXX XXXXXXXXXX.XXXX XXXX.XXXXXXXXXX XXXXXXXXXXXXXXX XXXXXXXXXXXXXXX XXXXXXXXXX.XXXX",
"                                                                                                                                ",
"XXXXXXXX XXXX.XXXXXXXXXX XXXXXXXXXX.XXXX XXXXXXXXXXXXXXX XXXXXXXXXXXXXXX XXXX.XXXXXXXXXX XXXXXXXXXX.XXXX XXXXXXXXXXXXXXX XXXXXXX",
".X.X.X.X XX.XX.XX.XXX.XX XX.XXX.XX.XX.XX X.X.X.X.X.X.X.X X.X.X.X.X.X.X.X XX.XX.XX.XXX.XX XX.XXX.XX.XX.XX X.X.X.X.X.X.X.X X.X.X.X",
"XXXXXXXX XXXXXXXXXX.XXXX XXXX.XXXXXXXXXX XXXXXXXXXXXXXXX XXXXXXXXXXXXXXX XXXXXXXXXX.XXXX XXXX.XXXXXXXXXX XXXXXXXXXXXXXXX XXXXXXX",
"X.XX.X.X X.XX.X.X.XX.X.X X.X.XX.X.X.XX.X X.X.XX.X.X.XX.X X.XX.X.X.XX.X.X X.XX.X.X.XX.X.X X.X.XX.X.X.XX.X X.X.XX.X.X.XX.X X.XX.X.",
"XXX.XXXX XXXXXXXXXXXXXXX XXXXXXXXXXXXXXX XXXX.XXXXXXXXXX XXXXXXXXXX.XXXX XXXXXXXXXXXXXXX XXXXXXXXXXXXXXX XXXX.XXXXXXXXXX XXXXXXX",
"X.XXX.XX X.X.X.X.X.X.X.X X.X.X.X.X.X.X.X XX.XXX.XX.XX.XX XX.XX.XX.XXX.XX X.X.X.X.X.X.X.X X.X.X.X.X.X.X.X XX.XXX.XX.XX.XX XX.XX.X",
"XXXXXXXX XXXXXXXXXXXXXXX XXXXXXXXXXXXXXX XXXXXXXXXX.XXXX XXXX.XXXXXXXXXX XXXXXXXXXXXXXXX XXXXXXXXXXXXXXX XXXXXXXXXX.XXXX XXXX.XX",
"                                                                                                                                ",
" XXXXXXXXXXXXXXX XXXX.XXXXXXXXXX XXXXXXXXXX.XXXX XXXXXXXXXXXXXXX XXXXXXXXXXXXXXX XXXX.XXXXXXXXXX XXXXXXXXXX.XXXX XXXXXXXXXXXXXXX",
" X.X.X.X.X.X.X.X XX.XX.XX.XXX.XX XX.XXX.XX.XX.XX X.X.X.X.X.X.X.X X.X.X.X.X.X.X.X XX.XX.XX.XXX.XX XX.XXX.XX.XX.XX X.X.X.X.X.X.X.X",
" XXXXXXXXXXXXXXX XXXXXXXXXX.XXXX XXXX.XXXXXXXXXX XXXXXXXXXXXXXXX XXXXXXXXXXXXXXX XXXXXXXXXX.XXXX XXXX.XXXXXXXXXX XXXXXXXXXXXXXXX",
" X.XX.X.X.XX.X.X X.XX.X.X.XX.X.X X.X.XX.X.X.XX.X X.X.XX.X.X.XX.X X.XX.X.X.XX.X.X X.XX.X.X.XX.X.X X.X.XX.X.X.XX.X X.X.XX.X.X.XX.X",
" XXXXXXXXXX.XXXX XXXXXXXXXXXXXXX XXXXXXXXXXXXXXX XXXX.XXXXXXXXXX XXXXXXXXXX.XXXX XXXXXXXXXXXXXXX XXXXXXXXXXXXXXX XXXX.XXXXXXXXXX",
" XX.XX.XX.XXX.XX X.X.X.X.X.X.X.X X.X.X.X.X.X.X.X XX.XXX.XX.XX.XX XX.XX.XX.XXX.XX X.X.X.X.X.X.X.X X.X.X.X.X.X.X.X XX.XXX.XX.XX.XX",
" XXXX.XXXXXXXXXX XXXXXXXXXXXXXXX XXXXXXXXXXXXXXX XXXXXXXXXX.XXXX XXXX.XXXXXXXXXX XXXXXXXXXXXXXXX XXXXXXXXXXXXXXX XXXXXXXXXX.XXXX",
"                                                                                                                                ",
"XXXXXXXX XXXX.XXXXXXXXXX XXXXXXXXXX.XXXX XXXXXXXXXXXXXXX XXXXXXXXXXXXXXX XXXX.XXXXXXXXXX XXXXXXXXXX.XXXX XXXXXXXXXXXXXXX XXXXXXX",
".X.X.X.X XX.XX.XX.XXX.XX XX.XXX.XX.XX.XX X.X.X.X.X.X.X.X X.X.X.X.X.X.X.X XX.XX.XX.XXX.XX XX.XXX.XX.XX.XX X.X.X.X.X.X.X.X X.X.X.X",
"XXXXXXXX XXXXXXXXXX.XXXX XXXX.XXXXXXXXXX XXXXXXXXXXXXXXX XXXXXXXXXXXXXXX XXXXXXXXXX.XXXX XXXX.XXXXXXXXXX XXXXXXXXXXXXXXX XXXXXXX",
"X.XX.X.X X.XX.X.X.XX.X.X X.X.XX.X.X.XX.X X.X.XX.X.X.XX.X X.XX.X.X.XX.X.X X.XX.X.X.XX.X.X X.X.XX.X.X.XX.X X.X.XX.X.X.XX.X X.XX.X.",
"XXX.XXXX XXXXXXXXXXXXXXX XXXXXXXXXXXXXXX XXXX.XXXXXXXXXX XXXXXXXXXX.XXXX XXXXXXXXXXXXXXX XXXXXXXXXXXXXXX XXXX.XXXXXXXXXX XXXXXXX",
"X.XXX.XX X.X.X.X.X.X.X.X X.X.X.X.X.X.X.X XX.XXX.XX.XX.XX XX.XX.XX.XXX.XX X.X.X.X.X.X.X.X X.X.X.X.X.X.X.X XX.XXX.XX.XX.XX XX.XX.X",
"XXXXXXXX XXXXXXXXXXXXXXX XXXXXXXXXXXXXXX XXXXXXXXXX.XXXX XXXX.XXXXXXXXXX XXXXXXXXXXXXXXX XXXXXXXXXXXXXXX XXXXXXXXXX.XXXX XXXX.XX"
};
