/* XPM */
static char *a21520385fdc439b819a8b2f9bf1f343wXQGLrhO0Cetzsm3[] = {
/* columns rows colors chars-per-pixel */
"128 128 2 1 ",
"  c black",
". c white",
/* pixels */
"................................................................................................................................",
"................................................................................................................................",
"................................................................................................................................",
"................................................................................................................................",
"................................................................................................................................",
"................................................................................................................................",
"................................................................................................................................",
"................................................................................................................................",
"................................................................................................................................",
"................................................................................................................................",
"................................................................................................................................",
"................................................................................................................................",
"................................................................................................................................",
"................................................................................................................................",
"................................................................................................................................",
"................................................................................................................................",
"................................................................................................................................",
"................................................................................................................................",
"................................................................................................................................",
"................................................................................................................................",
"................................................................................................................................",
"................................................................................................................................",
"................................................................................................................................",
"................................................................................................................................",
"................................................................................................................................",
"................................................................................................................................",
"................................................................................................................................",
"................................................................................................................................",
"................................................................................................................................",
"................................................................................................................................",
"................................................................................................................................",
"................................................................................................................................",
"................................................................................................................................",
"................................................................................................................................",
"................................................................................................................................",
"................................................................................................................................",
"................................................................................................................................",
"................................................................................................................................",
"................................................................................................................................",
"................................................................................................................................",
"................................................................................................................................",
"................................................................................................................................",
"................................................................................................................................",
"................................................................................................................................",
"................................................................................................................................",
"................................................................................................................................",
"................................................................................................................................",
"................................................................................................................................",
"................................................................................................................................",
"................................................................................................................................",
"................................................................................................................................",
"................................................................................................................................",
"................................................................................................................................",
"................................................................................................................................",
".............    ........    ........        ........            ........                    ....    ........    ...............",
".............    ........    ........        ........            ........                    ....    ........    ...............",
".............    ........    ........        ........            ........                    ....    ........    ...............",
".............    ........    ........        ........            ........                    ....    ........    ...............",
".............        ....    ....    ........    ....    ........    ............    ............    ........    ...............",
".............        ....    ....    ........    ....    ........    ............    ............    ........    ...............",
".............        ....    ....    ........    ....    ........    ............    ............    ........    ...............",
".............        ....    ....    ........    ....    ........    ............    ............    ........    ...............",
".............    ....        ....    ........    ....            ................    ............                ...............",
".............    ....        ....    ........    ....            ................    ............                ...............",
".............    ....        ....    ........    ....            ................    ............                ...............",
".............    ....        ....    ........    ....            ................    ............                ...............",
".............    ........    ....    ........    ....    ....    ................    ............    ........    ...............",
".............    ........    ....    ........    ....    ....    ................    ............    ........    ...............",
".............    ........    ....    ........    ....    ....    ................    ............    ........    ...............",
".............    ........    ....    ........    ....    ....    ................    ............    ........    ...............",
".............    ........    ........        ........    ........    ............    ............    ........    ...............",
".............    ........    ........        ........    ........    ............    ............    ........    ...............",
".............    ........    ........        ........    ........    ............    ............    ........    ...............",
".............    ........    ........        ........    ........    ............    ............    ........    ...............",
"................................................................................................................................",
"................................................................................................................................",
"................................................................................................................................",
"................................................................................................................................",
"................................................................................................................................",
"................................................................................................................................",
"................................................................................................................................",
"................................................................................................................................",
"................................................................................................................................",
"................................................................................................................................",
"................................................................................................................................",
"................................................................................................................................",
"................................................................................................................................",
"................................................................................................................................",
"................................................................................................................................",
"................................................................................................................................",
"................................................................................................................................",
"................................................................................................................................",
"................................................................................................................................",
"................................................................................................................................",
"................................................................................................................................",
"................................................................................................................................",
"................................................................................................................................",
"................................................................................................................................",
"................................................................................................................................",
"................................................................................................................................",
"................................................................................................................................",
"................................................................................................................................",
"................................................................................................................................",
"................................................................................................................................",
"................................................................................................................................",
"................................................................................................................................",
"................................................................................................................................",
"................................................................................................................................",
"................................................................................................................................",
"................................................................................................................................",
"................................................................................................................................",
"................................................................................................................................",
"................................................................................................................................",
"................................................................................................................................",
"................................................................................................................................",
"................................................................................................................................",
"................................................................................................................................",
"................................................................................................................................",
"................................................................................................................................",
"................................................................................................................................",
"................................................................................................................................",
"................................................................................................................................",
"................................................................................................................................",
"................................................................................................................................",
"................................................................................................................................",
"................................................................................................................................",
"................................................................................................................................",
"................................................................................................................................"
};
