/* XPM */
static char *f9137a7c0eaf4a4cb299e1d930f2286aZU6naje1SwyRdRjU[] = {
/* columns rows colors chars-per-pixel */
"128 128 2 1 ",
"  c black",
". c white",
/* pixels */
"................................................................................................................................",
"................................................................................................................................",
"................................................................................................................................",
"................................................................................................................................",
"................................................................................................................................",
"................................................................................................................................",
"................................................................................................................................",
"................................................................................................................................",
"................................................................................................................................",
"................................................................................................................................",
"................................................................................................................................",
"................................................................................................................................",
"................................................................................................................................",
"................................................................................................................................",
"................................................................................................................................",
"................................................................................................................................",
"................................................................................................................................",
"................................................................................................................................",
"................................................................................................................................",
"................................................................................................................................",
"................................................................................................................................",
"................................................................................................................................",
"................................................................................................................................",
"................................................................................................................................",
"................................................................................................................................",
"................................................................................................................................",
"................................................................................................................................",
"................................................................................................................................",
"................................................................................................................................",
"................................................................................................................................",
"................................................................................................................................",
"................................................................................................................................",
"................................................................................................................................",
"................................................................................................................................",
"................................................................................................................................",
"................................................................................................................................",
"................................................................................................................................",
"................................................................................................................................",
"................................................................................................................................",
"................................................................................................................................",
"................................................................................................................................",
"................................................................................................................................",
"................................................................................................................................",
"................................................................................................................................",
"................................................................................................................................",
"................................................................................................................................",
"................................................................................................................................",
"................................................................................................................................",
"................................................................................................................................",
"................................................................................................................................",
"................................................................................................................................",
"................................................................................................................................",
"................................................................................................................................",
"................................................................................................................................",
".................            ........        ........    ........    ....                    ....    ........    ...............",
".................            ........        ........    ........    ....                    ....    ........    ...............",
".................            ........        ........    ........    ....                    ....    ........    ...............",
".................            ........        ........    ........    ....                    ....    ........    ...............",
".............    ................    ........    ....    ........    ............    ............    ........    ...............",
".............    ................    ........    ....    ........    ............    ............    ........    ...............",
".............    ................    ........    ....    ........    ............    ............    ........    ...............",
".............    ................    ........    ....    ........    ............    ............    ........    ...............",
".................        ........    ........    ....    ........    ............    ............                ...............",
".................        ........    ........    ....    ........    ............    ............                ...............",
".................        ........    ........    ....    ........    ............    ............                ...............",
".................        ........    ........    ....    ........    ............    ............                ...............",
".........................    ....    ........    ....    ........    ............    ............    ........    ...............",
".........................    ....    ........    ....    ........    ............    ............    ........    ...............",
".........................    ....    ........    ....    ........    ............    ............    ........    ...............",
".........................    ....    ........    ....    ........    ............    ............    ........    ...............",
".............            ............        ............        ................    ............    ........    ...............",
".............            ............        ............        ................    ............    ........    ...............",
".............            ............        ............        ................    ............    ........    ...............",
".............            ............        ............        ................    ............    ........    ...............",
"................................................................................................................................",
"................................................................................................................................",
"................................................................................................................................",
"................................................................................................................................",
"................................................................................................................................",
"................................................................................................................................",
"................................................................................................................................",
"................................................................................................................................",
"................................................................................................................................",
"................................................................................................................................",
"................................................................................................................................",
"................................................................................................................................",
"................................................................................................................................",
"................................................................................................................................",
"................................................................................................................................",
"................................................................................................................................",
"................................................................................................................................",
"................................................................................................................................",
"................................................................................................................................",
"................................................................................................................................",
"................................................................................................................................",
"................................................................................................................................",
"................................................................................................................................",
"................................................................................................................................",
"................................................................................................................................",
"................................................................................................................................",
"................................................................................................................................",
"................................................................................................................................",
"................................................................................................................................",
"................................................................................................................................",
"................................................................................................................................",
"................................................................................................................................",
"................................................................................................................................",
"................................................................................................................................",
"................................................................................................................................",
"................................................................................................................................",
"................................................................................................................................",
"................................................................................................................................",
"................................................................................................................................",
"................................................................................................................................",
"................................................................................................................................",
"................................................................................................................................",
"................................................................................................................................",
"................................................................................................................................",
"................................................................................................................................",
"................................................................................................................................",
"................................................................................................................................",
"................................................................................................................................",
"................................................................................................................................",
"................................................................................................................................",
"................................................................................................................................",
"................................................................................................................................",
"................................................................................................................................",
"................................................................................................................................"
};
