/* XPM */
static char *d49d0a05a3e948fec15b067298abc818BCRMzm96yG6GZug2[] = {
/* columns rows colors chars-per-pixel */
"128 128 2 1 ",
"  c black",
". c white",
/* pixels */
"................................................................................................................................",
"................................................................................................................................",
"................................................................................................................................",
"................................................................................................................................",
"................................................................................................................................",
"................................................................................................................................",
"................................................................................................................................",
"................................................................................................................................",
"................................................................................................................................",
"................................................................................................................................",
"................................................................................................................................",
"................................................................................................................................",
"................................................................................................................................",
"................................................................................................................................",
"................................................................................................................................",
"................................................................................................................................",
"................................................................................................................................",
"................................................................................................................................",
"................................................................................................................................",
"................................................................................................................................",
"................................................................................................................................",
"................................................................................................................................",
"................................................................................................................................",
"................................................................................................................................",
"................................................................................................................................",
"................................................................................................................................",
"................................................................................................................................",
"................................................................................................................................",
"................................................................................................................................",
"................................................................................................................................",
"................................................................................................................................",
"................................................................................................................................",
"................................................................................................................................",
"................................................................................................................................",
"................................................................................................................................",
"................................................................................................................................",
"................................................................................................................................",
"................................................................................................................................",
"................................................................................................................................",
"................................................................................................................................",
"................................................................................................................................",
"................................................................................................................................",
"................................................................................................................................",
"................................................................................................................................",
"................................................................................................................................",
"................................................................................................................................",
"................................................................................................................................",
"................................................................................................................................",
"................................................................................................................................",
"................................................................................................................................",
"................................................................................................................................",
"................................................................................................................................",
"................................................................................................................................",
"................................................................................................................................",
"....................    ............    ....                ........            ....                    ........................",
"....................    ............    ....                ........            ....                    ........................",
"....................    ............    ....                ........            ....                    ........................",
"....................    ............    ....                ........            ....                    ........................",
"....................    ............    ....    ................    ........................    ................................",
"....................    ............    ....    ................    ........................    ................................",
"....................    ............    ....    ................    ........................    ................................",
"....................    ............    ....    ................    ........................    ................................",
"....................    ....    ....    ....            ............        ................    ................................",
"....................    ....    ....    ....            ............        ................    ................................",
"....................    ....    ....    ....            ............        ................    ................................",
"....................    ....    ....    ....            ............        ................    ................................",
"....................        ....        ....    ............................    ............    ................................",
"....................        ....        ....    ............................    ............    ................................",
"....................        ....        ....    ............................    ............    ................................",
"....................        ....        ....    ............................    ............    ................................",
"....................    ............    ....                ....            ................    ................................",
"....................    ............    ....                ....            ................    ................................",
"....................    ............    ....                ....            ................    ................................",
"....................    ............    ....                ....            ................    ................................",
"................................................................................................................................",
"................................................................................................................................",
"................................................................................................................................",
"................................................................................................................................",
"................................................................................................................................",
"................................................................................................................................",
"................................................................................................................................",
"................................................................................................................................",
"................................................................................................................................",
"................................................................................................................................",
"................................................................................................................................",
"................................................................................................................................",
"................................................................................................................................",
"................................................................................................................................",
"................................................................................................................................",
"................................................................................................................................",
"................................................................................................................................",
"................................................................................................................................",
"................................................................................................................................",
"................................................................................................................................",
"................................................................................................................................",
"................................................................................................................................",
"................................................................................................................................",
"................................................................................................................................",
"................................................................................................................................",
"................................................................................................................................",
"................................................................................................................................",
"................................................................................................................................",
"................................................................................................................................",
"................................................................................................................................",
"................................................................................................................................",
"................................................................................................................................",
"................................................................................................................................",
"................................................................................................................................",
"................................................................................................................................",
"................................................................................................................................",
"................................................................................................................................",
"................................................................................................................................",
"................................................................................................................................",
"................................................................................................................................",
"................................................................................................................................",
"................................................................................................................................",
"................................................................................................................................",
"................................................................................................................................",
"................................................................................................................................",
"................................................................................................................................",
"................................................................................................................................",
"................................................................................................................................",
"................................................................................................................................",
"................................................................................................................................",
"................................................................................................................................",
"................................................................................................................................",
"................................................................................................................................",
"................................................................................................................................"
};
